<?xml version="1.0" encoding="UTF-8"?>
<!-- Generator: visioncortex VTracer 0.6.4 -->
<svg version="1.1" xmlns="http://www.w3.org/2000/svg" width="512" height="512">
<path d="M0 0 C1.950195 1.192383 1.950195 1.192383 3.828125 2.703125 C4.891239 3.545688 4.891239 3.545688 5.97583 4.405273 C7.101544 5.318413 7.101544 5.318413 8.25 6.25 C9.862697 7.531985 11.475993 8.813217 13.089844 10.09375 C13.906948 10.746016 14.724053 11.398281 15.565918 12.070312 C19.277449 15.012734 23.042832 17.882692 26.8125 20.75 C28.22022 21.823999 29.627775 22.898213 31.035156 23.972656 C32.038933 24.738601 32.038933 24.738601 33.062988 25.52002 C38.052843 29.332535 43.024704 33.168522 48 37 C50.166447 38.666953 52.333225 40.333474 54.5 42 C55.583339 42.833325 56.666673 43.666659 57.75 44.5 C58.554375 45.11875 58.554375 45.11875 59.375 45.75 C65.333333 50.333333 71.291667 54.916667 77.25 59.5 C77.786895 59.912983 78.323789 60.325967 78.876953 60.751465 C79.953825 61.579852 81.030648 62.408302 82.107422 63.236816 C84.914221 65.39635 87.721993 67.554601 90.53125 69.710938 C91.111973 70.156953 91.692695 70.602969 92.291016 71.0625 C93.902092 72.299807 95.513534 73.536638 97.125 74.773438 C99.770743 76.822451 102.386898 78.909519 105 81 C105.33 69.78 105.66 58.56 106 47 C130.75 47 155.5 47 181 47 C180.863359 53.551016 180.726719 60.102031 180.585938 66.851562 C180.539512 71.026468 180.498472 75.200069 180.476562 79.375 C180.44135 85.988726 180.387326 92.598204 180.214844 99.209961 C180.076852 104.547585 180.028628 109.879472 180.040028 115.218792 C180.029078 117.245136 179.986922 119.271582 179.911663 121.296558 C179.352325 132.370719 179.352325 132.370719 183.719765 142.180779 C187.937219 146.257842 192.650213 149.431192 197.63364 152.492916 C201.554174 154.98982 205.160741 157.881109 208.8125 160.75 C210.218478 161.826278 211.625826 162.900771 213.035156 163.972656 C217.659679 167.501457 222.270493 171.047855 226.878906 174.597656 C229.030642 176.253873 231.183975 177.907782 233.339844 179.558594 C239.956067 184.628567 246.516556 189.760558 253 195 C252.391807 198.295411 251.268992 200.260611 249.191406 202.871094 C248.614229 203.603684 248.037051 204.336274 247.442383 205.091064 C246.822021 205.865388 246.20166 206.639712 245.5625 207.4375 C244.277052 209.064874 242.991898 210.69248 241.707031 212.320312 C241.073618 213.118564 240.440205 213.916816 239.787598 214.739258 C237.413225 217.742084 235.076972 220.77289 232.75 223.8125 C231.961094 224.839883 231.172188 225.867266 230.359375 226.925781 C229.580781 227.940273 228.802188 228.954766 228 230 C225.918673 232.70721 223.836212 235.413547 221.753418 238.119629 C219.642563 240.862665 217.534004 243.607413 215.429688 246.355469 C210.363402 252.966307 205.235345 259.521626 200 266 C196.399807 264.383762 193.449027 262.19462 190.3125 259.8125 C189.339258 259.076445 188.366016 258.340391 187.363281 257.582031 C184.660603 255.515642 181.974618 253.428143 179.289795 251.338623 C178.484831 250.712234 177.679867 250.085846 176.85051 249.440475 C175.934507 248.72744 175.934507 248.72744 175 248 C174.995768 248.921596 174.991536 249.843193 174.987176 250.792716 C174.884019 273.183271 174.775404 295.573794 174.660661 317.964293 C174.605305 328.792021 174.55182 339.619752 174.502686 350.44751 C174.459872 359.881365 174.413601 369.315195 174.363121 378.749013 C174.336498 383.7474 174.311644 388.745784 174.290926 393.7442 C174.271395 398.443174 174.247262 403.142101 174.219509 407.841034 C174.21012 409.570879 174.202452 411.300735 174.196581 413.030596 C174.188351 415.381853 174.174083 417.732997 174.158218 420.084213 C174.14854 422.062842 174.14854 422.062842 174.138665 424.081443 C174 427 174 427 173 428 C171.241066 428.09632 169.478228 428.121875 167.71666 428.120255 C166.57096 428.121629 165.42526 428.123004 164.244843 428.12442 C162.976737 428.120825 161.708632 428.11723 160.4021 428.113525 C159.062068 428.113244 157.722036 428.113401 156.382004 428.113968 C152.733406 428.114256 149.08484 428.108359 145.436249 428.101394 C141.627225 428.09516 137.8182 428.094557 134.009171 428.093369 C126.791422 428.090255 119.573689 428.082042 112.355948 428.072019 C102.60601 428.058773 92.856068 428.053358 83.106124 428.047517 C67.737405 428.038102 52.368717 428.018183 37 428 C37 383.78 37 339.56 37 294 C12.58 294 -11.84 294 -37 294 C-37 338.22 -37 382.44 -37 428 C-72.569667 428.040303 -72.569667 428.040303 -87.427734 428.048828 C-97.7037 428.054771 -107.979657 428.061774 -118.255615 428.075439 C-125.738154 428.085386 -133.220687 428.091853 -140.703232 428.094088 C-144.667646 428.095396 -148.632041 428.098482 -152.596449 428.10573 C-156.323602 428.112489 -160.050729 428.114617 -163.777887 428.113108 C-165.149755 428.113384 -166.521624 428.11539 -167.893486 428.119205 C-169.75861 428.124141 -171.623747 428.122398 -173.488876 428.120255 C-174.535111 428.121176 -175.581346 428.122098 -176.659286 428.123048 C-179 428 -179 428 -180 427 C-180.109432 424.696733 -180.146939 422.390051 -180.158218 420.084213 C-180.165625 418.986498 -180.165625 418.986498 -180.173182 417.866606 C-180.188632 415.396018 -180.196938 412.925456 -180.205322 410.454834 C-180.214895 408.69116 -180.224905 406.927488 -180.235321 405.163818 C-180.262443 400.360327 -180.283413 395.556825 -180.303323 390.753299 C-180.325138 385.739083 -180.352549 380.724899 -180.379379 375.710709 C-180.429367 366.208655 -180.474283 356.706584 -180.517402 347.204496 C-180.566722 336.389665 -180.621659 325.574864 -180.677081 314.760062 C-180.790995 292.506737 -180.897813 270.253382 -181 248 C-182.02553 248.822744 -183.05106 249.645488 -184.107666 250.493164 C-185.468886 251.584017 -186.830135 252.674836 -188.191406 253.765625 C-189.202495 254.577009 -189.202495 254.577009 -190.234009 255.404785 C-194.758093 259.028465 -199.328238 262.567685 -204 266 C-207.181016 264.632913 -208.908531 263.21215 -210.996094 260.464844 C-211.548135 259.746433 -212.100176 259.028022 -212.668945 258.287842 C-213.252568 257.512229 -213.836191 256.736616 -214.4375 255.9375 C-215.050771 255.135461 -215.664043 254.333423 -216.295898 253.50708 C-217.573474 251.834728 -218.847685 250.159801 -220.118652 248.482422 C-221.890825 246.144056 -223.671725 243.812722 -225.457031 241.484375 C-227.632249 238.647066 -229.804304 235.807403 -231.972656 232.964844 C-235.4964 228.34695 -239.037857 223.742848 -242.582031 219.140625 C-244.289333 216.923063 -245.995179 214.70444 -247.699219 212.484375 C-248.146926 211.901396 -248.594634 211.318418 -249.055908 210.717773 C-250.295352 209.103721 -251.534408 207.489371 -252.773438 205.875 C-254.95526 202.987022 -254.95526 202.987022 -257.351562 200.375 C-259 198 -259 198 -258.779053 196.013672 C-257.440057 192.552676 -254.306174 190.689374 -251.4375 188.5 C-250.765657 187.97519 -250.093813 187.450381 -249.401611 186.909668 C-244.054586 182.752869 -238.634575 178.6906 -233.20166 174.646973 C-225.733769 169.083475 -218.40759 163.340491 -211.067383 157.610352 C-206.065184 153.713977 -201.029992 149.860375 -196 146 C-193.832892 144.333907 -191.66645 142.666948 -189.5 141 C-188.416679 140.166651 -187.333345 139.333318 -186.25 138.5 C-185.445625 137.88125 -185.445625 137.88125 -184.625 137.25 C-36.75 23.5 -36.75 23.5 -35.124023 22.249268 C-34.043921 21.418407 -32.963843 20.587515 -31.883789 19.756592 C-29.126221 17.635162 -26.368199 15.514328 -23.609375 13.394531 C-22.773096 12.751249 -22.773096 12.751249 -21.919922 12.094971 C-20.818538 11.249127 -19.715702 10.405169 -18.611328 9.563232 C-16.150208 7.682373 -13.73116 5.774111 -11.359375 3.78125 C-10.580781 3.131563 -9.802188 2.481875 -9 1.8125 C-8.34 1.241445 -7.68 0.670391 -7 0.082031 C-4.260357 -1.400159 -2.95601 -0.832862 0 0 Z " fill="#FF9A00" transform="translate(259,43)"/>
<path d="M0 0 C0 97.35 0 194.7 0 295 C-11.22 295 -22.44 295 -34 295 C-34 339.22 -34 383.44 -34 429 C-69.569667 429.040303 -69.569667 429.040303 -84.427734 429.048828 C-94.7037 429.054771 -104.979657 429.061774 -115.255615 429.075439 C-122.738154 429.085386 -130.220687 429.091853 -137.703232 429.094088 C-141.667646 429.095396 -145.632041 429.098482 -149.596449 429.10573 C-153.323602 429.112489 -157.050729 429.114617 -160.777887 429.113108 C-162.149755 429.113384 -163.521624 429.11539 -164.893486 429.119205 C-166.75861 429.124141 -168.623747 429.122398 -170.488876 429.120255 C-171.535111 429.121176 -172.581346 429.122098 -173.659286 429.123048 C-176 429 -176 429 -177 428 C-177.109432 425.696733 -177.146939 423.390051 -177.158218 421.084213 C-177.165625 419.986498 -177.165625 419.986498 -177.173182 418.866606 C-177.188632 416.396018 -177.196938 413.925456 -177.205322 411.454834 C-177.214895 409.69116 -177.224905 407.927488 -177.235321 406.163818 C-177.262443 401.360327 -177.283413 396.556825 -177.303323 391.753299 C-177.325138 386.739083 -177.352549 381.724899 -177.379379 376.710709 C-177.429367 367.208655 -177.474283 357.706584 -177.517402 348.204496 C-177.566722 337.389665 -177.621659 326.574864 -177.677081 315.760062 C-177.790995 293.506737 -177.897813 271.253382 -178 249 C-179.02553 249.822744 -180.05106 250.645488 -181.107666 251.493164 C-182.468886 252.584017 -183.830135 253.674836 -185.191406 254.765625 C-186.202495 255.577009 -186.202495 255.577009 -187.234009 256.404785 C-191.758093 260.028465 -196.328238 263.567685 -201 267 C-204.181016 265.632913 -205.908531 264.21215 -207.996094 261.464844 C-208.548135 260.746433 -209.100176 260.028022 -209.668945 259.287842 C-210.252568 258.512229 -210.836191 257.736616 -211.4375 256.9375 C-212.050771 256.135461 -212.664043 255.333423 -213.295898 254.50708 C-214.573474 252.834728 -215.847685 251.159801 -217.118652 249.482422 C-218.890825 247.144056 -220.671725 244.812722 -222.457031 242.484375 C-224.632249 239.647066 -226.804304 236.807403 -228.972656 233.964844 C-232.4964 229.34695 -236.037857 224.742848 -239.582031 220.140625 C-241.289333 217.923063 -242.995179 215.70444 -244.699219 213.484375 C-245.146926 212.901396 -245.594634 212.318418 -246.055908 211.717773 C-247.295352 210.103721 -248.534408 208.489371 -249.773438 206.875 C-251.95526 203.987022 -251.95526 203.987022 -254.351562 201.375 C-256 199 -256 199 -255.779053 197.013672 C-254.440057 193.552676 -251.306174 191.689374 -248.4375 189.5 C-247.765657 188.97519 -247.093813 188.450381 -246.401611 187.909668 C-241.054586 183.752869 -235.634575 179.6906 -230.20166 175.646973 C-222.733769 170.083475 -215.40759 164.340491 -208.067383 158.610352 C-203.065184 154.713977 -198.029992 150.860375 -193 147 C-190.832892 145.333907 -188.66645 143.666948 -186.5 142 C-185.416679 141.166651 -184.333345 140.333318 -183.25 139.5 C-182.445625 138.88125 -182.445625 138.88125 -181.625 138.25 C-33.75 24.5 -33.75 24.5 -32.124023 23.249268 C-31.043921 22.418407 -29.963843 21.587515 -28.883789 20.756592 C-26.126221 18.635162 -23.368199 16.514328 -20.609375 14.394531 C-20.051614 13.965757 -19.493853 13.536982 -18.919189 13.095215 C-17.819206 12.249915 -16.718793 11.405175 -15.61792 10.561035 C-11.608315 7.482594 -7.644333 4.349982 -3.707031 1.179688 C-2 0 -2 0 0 0 Z " fill="#FFB64E" transform="translate(256,42)"/>
<path d="M0 0 C2.606329 1.278456 4.938295 2.579577 7.257812 4.328125 C7.874226 4.79106 8.49064 5.253994 9.125732 5.730957 C9.785491 6.232241 10.445249 6.733525 11.125 7.25 C12.169745 8.038665 12.169745 8.038665 13.235596 8.843262 C20.121051 14.057638 26.934264 19.364749 33.742188 24.679688 C39.470521 29.151516 45.235028 33.575549 51 38 C53.167108 39.666093 55.33355 41.333052 57.5 43 C58.583321 43.833349 59.666655 44.666682 60.75 45.5 C67.25 50.5 73.75 55.5 80.25 60.5 C80.786895 60.912983 81.323789 61.325967 81.876953 61.751465 C82.953825 62.579852 84.030648 63.408302 85.107422 64.236816 C87.914221 66.39635 90.721993 68.554601 93.53125 70.710938 C94.111973 71.156953 94.692695 71.602969 95.291016 72.0625 C96.902092 73.299807 98.513534 74.536638 100.125 75.773438 C102.770743 77.822451 105.386898 79.909519 108 82 C108.33 70.78 108.66 59.56 109 48 C133.75 48 158.5 48 184 48 C183.863359 54.551016 183.726719 61.102031 183.585938 67.851562 C183.539512 72.026468 183.498472 76.200069 183.476562 80.375 C183.44135 86.988726 183.387326 93.598204 183.214844 100.209961 C183.076852 105.547585 183.028628 110.879472 183.040028 116.218792 C183.029078 118.245136 182.986922 120.271582 182.911663 122.296558 C182.352325 133.370719 182.352325 133.370719 186.719765 143.180779 C190.937219 147.257842 195.650213 150.431192 200.63364 153.492916 C204.554174 155.98982 208.160741 158.881109 211.8125 161.75 C213.218478 162.826278 214.625826 163.900771 216.035156 164.972656 C220.659679 168.501457 225.270493 172.047855 229.878906 175.597656 C232.030642 177.253873 234.183975 178.907782 236.339844 180.558594 C242.956067 185.628567 249.516556 190.760558 256 196 C255.391807 199.295411 254.268992 201.260611 252.191406 203.871094 C251.614229 204.603684 251.037051 205.336274 250.442383 206.091064 C249.822021 206.865388 249.20166 207.639712 248.5625 208.4375 C247.277052 210.064874 245.991898 211.69248 244.707031 213.320312 C244.073618 214.118564 243.440205 214.916816 242.787598 215.739258 C240.413225 218.742084 238.076972 221.77289 235.75 224.8125 C234.961094 225.839883 234.172188 226.867266 233.359375 227.925781 C232.191484 229.44752 232.191484 229.44752 231 231 C228.918673 233.70721 226.836212 236.413547 224.753418 239.119629 C222.642563 241.862665 220.534004 244.607413 218.429688 247.355469 C213.363402 253.966307 208.235345 260.521626 203 267 C191.3165 261.739656 180.84627 251.243517 171.125 243.0625 C166.222225 238.961201 161.197641 235.081895 156.0625 231.277344 C152.870654 228.903815 149.711883 226.491849 146.5625 224.0625 C146.022463 223.646133 145.482427 223.229766 144.926025 222.800781 C143.830898 221.956095 142.735928 221.111205 141.641113 220.266113 C138.929779 218.174328 136.214715 216.087394 133.5 214 C132.416649 213.16669 131.333315 212.333357 130.25 211.5 C129.71375 211.0875 129.1775 210.675 128.625 210.25 C123.75 206.5 123.75 206.5 122.125977 205.250732 C121.039412 204.414926 119.952824 203.579152 118.866211 202.743408 C116.207115 200.698164 113.548501 198.6523 110.890625 196.605469 C104.768965 191.8924 98.638396 187.191254 92.5 182.5 C85.322189 177.014376 78.15755 171.512032 71 166 C68.833553 164.333047 66.666775 162.666526 64.5 161 C63.416661 160.166675 62.333327 159.333341 61.25 158.5 C60.71375 158.0875 60.1775 157.675 59.625 157.25 C49.333333 149.333333 39.041667 141.416667 28.75 133.5 C28.213186 133.087097 27.676372 132.674194 27.123291 132.248779 C26.045533 131.419672 24.967895 130.590409 23.890381 129.760986 C21.097733 127.611658 18.302729 125.465501 15.503906 123.324219 C14.927695 122.882715 14.351484 122.441211 13.757812 121.986328 C12.163394 120.764798 10.568056 119.544468 8.972656 118.324219 C7.99168 117.557227 7.010703 116.790234 6 116 C4.962738 115.348928 3.925475 114.697856 2.856781 114.027054 C0.83597 112.318194 0.089755 111.368647 -0.541836 108.774542 C-0.740308 105.914065 -0.741786 103.109794 -0.681152 100.24292 C-0.682029 99.159543 -0.682905 98.076167 -0.683807 96.959961 C-0.679631 93.382727 -0.63297 89.807374 -0.585938 86.230469 C-0.574746 83.748978 -0.566205 81.267474 -0.560211 78.785965 C-0.537312 72.257368 -0.478377 65.729574 -0.411987 59.201294 C-0.347346 52.538647 -0.323201 45.875766 -0.292969 39.212891 C-0.228636 26.141585 -0.127396 13.070835 0 0 Z " fill="#FF4E19" transform="translate(256,42)"/>
<path d="M0 0 C0.281022 14.299306 0.491468 28.598181 0.621746 42.899687 C0.684289 49.541468 0.769054 56.180576 0.905273 62.821289 C1.035989 69.234052 1.107477 75.645032 1.138527 82.059025 C1.160643 84.50162 1.203834 86.94412 1.268761 89.385952 C1.782708 109.522046 1.782708 109.522046 -2.542603 114.625061 C-5.392208 117.284776 -8.588022 119.124508 -12 121 C-13.998308 122.474404 -15.980271 123.971486 -17.9375 125.5 C-18.9275 126.233477 -19.9175 126.966953 -20.9375 127.722656 C-24.129346 130.096185 -27.288117 132.508151 -30.4375 134.9375 C-30.977537 135.353867 -31.517573 135.770234 -32.073975 136.199219 C-33.169102 137.043905 -34.264072 137.888795 -35.358887 138.733887 C-38.070221 140.825672 -40.785285 142.912606 -43.5 145 C-44.583351 145.83331 -45.666685 146.666643 -46.75 147.5 C-144.25 222.5 -144.25 222.5 -145.875732 223.750488 C-146.956721 224.582068 -148.037613 225.413773 -149.118408 226.245605 C-151.861827 228.356818 -154.606999 230.465679 -157.355469 232.570312 C-166.001895 239.195578 -174.540464 245.921788 -182.875 252.9375 C-188.751369 257.859913 -194.820778 262.464188 -201 267 C-204.181016 265.632913 -205.908531 264.21215 -207.996094 261.464844 C-208.548135 260.746433 -209.100176 260.028022 -209.668945 259.287842 C-210.252568 258.512229 -210.836191 257.736616 -211.4375 256.9375 C-212.050771 256.135461 -212.664043 255.333423 -213.295898 254.50708 C-214.573474 252.834728 -215.847685 251.159801 -217.118652 249.482422 C-218.890825 247.144056 -220.671725 244.812722 -222.457031 242.484375 C-224.632249 239.647066 -226.804304 236.807403 -228.972656 233.964844 C-232.4964 229.34695 -236.037857 224.742848 -239.582031 220.140625 C-241.289333 217.923063 -242.995179 215.70444 -244.699219 213.484375 C-245.146926 212.901396 -245.594634 212.318418 -246.055908 211.717773 C-247.295352 210.103721 -248.534408 208.489371 -249.773438 206.875 C-251.95526 203.987022 -251.95526 203.987022 -254.351562 201.375 C-256 199 -256 199 -255.779053 197.013672 C-254.440057 193.552676 -251.306174 191.689374 -248.4375 189.5 C-247.765657 188.97519 -247.093813 188.450381 -246.401611 187.909668 C-241.054586 183.752869 -235.634575 179.6906 -230.20166 175.646973 C-222.733769 170.083475 -215.40759 164.340491 -208.067383 158.610352 C-203.065184 154.713977 -198.029992 150.860375 -193 147 C-190.832892 145.333907 -188.66645 143.666948 -186.5 142 C-185.416679 141.166651 -184.333345 140.333318 -183.25 139.5 C-182.445625 138.88125 -182.445625 138.88125 -181.625 138.25 C-33.75 24.5 -33.75 24.5 -32.124023 23.249268 C-31.043921 22.418407 -29.963843 21.587515 -28.883789 20.756592 C-26.126221 18.635162 -23.368199 16.514328 -20.609375 14.394531 C-20.051614 13.965757 -19.493853 13.536982 -18.919189 13.095215 C-17.819206 12.249915 -16.718793 11.405175 -15.61792 10.561035 C-11.608315 7.482594 -7.644333 4.349982 -3.707031 1.179688 C-2 0 -2 0 0 0 Z " fill="#FF7C3B" transform="translate(256,42)"/>
</svg>
