<?xml version="1.0" encoding="UTF-8"?>
<!-- Generator: visioncortex VTracer 0.6.4 -->
<svg version="1.1" xmlns="http://www.w3.org/2000/svg" width="344" height="125">
<path d="M0 0 C1.02303 -0.002848 1.02303 -0.002848 2.066727 -0.005753 C4.30201 -0.009432 6.536963 0.001199 8.772217 0.012451 C10.330663 0.013644 11.889109 0.014096 13.447556 0.01384 C16.703039 0.015399 19.958412 0.023654 23.213867 0.037109 C27.394967 0.054169 31.575946 0.057921 35.757077 0.057164 C38.969713 0.057435 42.182322 0.062907 45.394949 0.070166 C46.937591 0.073355 48.480237 0.07532 50.022882 0.076059 C52.170256 0.078216 54.317498 0.086944 56.464844 0.097656 C58.299681 0.103374 58.299681 0.103374 60.171585 0.109207 C62.908936 0.24292 62.908936 0.24292 63.908936 1.24292 C63.406602 10.787255 59.903761 16.99829 52.994873 23.547607 C46.871499 28.524282 39.872688 29.370912 32.190918 29.356445 C31.209589 29.356664 31.209589 29.356664 30.208435 29.356888 C28.06039 29.356195 25.912434 29.348432 23.764404 29.340576 C22.269394 29.33871 20.774384 29.337287 19.279373 29.336288 C15.355217 29.332481 11.431099 29.322665 7.506958 29.311584 C3.498378 29.301333 -0.510209 29.296783 -4.518799 29.291748 C-12.376238 29.281041 -20.233646 29.263986 -28.091064 29.24292 C-29.656204 24.5475 -27.78551 20.759078 -26.091064 16.24292 C-22.839037 9.98902 -17.000129 3.821186 -10.383377 1.149704 C-6.774469 0.155722 -3.740747 -0.004344 0 0 Z " fill="#EE4210" transform="translate(47.091064453125,12.757080078125)"/>
<path d="M0 0 C1.300896 0.000076 2.601791 0.000151 3.942108 0.000229 C5.346985 0.005334 6.751862 0.01055 8.156738 0.015869 C9.605478 0.017736 11.054219 0.019159 12.50296 0.020157 C16.300514 0.02396 20.09803 0.033771 23.895569 0.044861 C27.776891 0.055123 31.658219 0.059665 35.539551 0.064697 C43.143735 0.075395 50.747887 0.092444 58.352051 0.113525 C59.816008 5.322665 58.389896 9.185644 56.352051 14.113525 C51.886814 21.897337 45.947806 26.654518 37.352051 29.113525 C33.973053 29.354034 33.973053 29.354034 30.245117 29.340576 C29.561491 29.340868 28.877865 29.34116 28.173523 29.341461 C25.93342 29.340077 23.693657 29.324562 21.453613 29.308838 C19.892773 29.305104 18.331931 29.302259 16.771088 29.300262 C12.677566 29.292653 8.584188 29.273028 4.490723 29.250854 C0.3078 29.230338 -3.875147 29.221248 -8.058105 29.211182 C-16.254786 29.189779 -24.45135 29.155676 -32.647949 29.113525 C-34.341034 23.109555 -31.813443 18.236388 -28.897949 12.926025 C-21.199723 3.303242 -12.216173 -0.023767 0 0 Z " fill="#F04210" transform="translate(52.64794921875,83.886474609375)"/>
<path d="M0 0 C8.823704 -0.093058 17.647237 -0.163945 26.471327 -0.207249 C30.569604 -0.228042 34.667543 -0.256206 38.765625 -0.301758 C42.72734 -0.345513 46.688731 -0.369199 50.650669 -0.379509 C52.155225 -0.386848 53.659764 -0.401177 55.164181 -0.42292 C65.216298 -0.562304 74.003962 0.053467 82.3125 6.25 C88.745718 12.832827 90.880297 18.908682 92 28 C88.449931 29.1013 85.166234 29.116614 81.462402 29.101074 C80.814638 29.099498 80.166874 29.097922 79.499481 29.096298 C77.361544 29.088822 75.223809 29.072805 73.085938 29.054688 C72.351873 29.048979 71.617809 29.04327 70.8615 29.037388 C66.972518 29.005877 63.083682 28.966973 59.194824 28.922852 C55.200608 28.879232 51.206784 28.863299 47.212362 28.853621 C44.121788 28.840677 41.031721 28.805896 37.941395 28.765507 C36.470448 28.750128 34.999389 28.742913 33.528362 28.744411 C23.273821 28.745311 15.538301 27.448799 7.378906 20.894531 C2.90685 15.768497 -0.157266 10.872438 -1 4 C-0.697797 2.659268 -0.368532 1.324037 0 0 Z " fill="#EE4211" transform="translate(20,49)"/>
<path d="M0 0 C1.144083 0.007493 1.144083 0.007493 2.311279 0.015137 C8.195562 0.197976 12.529897 1.131623 16.75 5.5 C21.562171 11.546061 22.419682 16.95988 21.75 24.5 C20.440612 30.714044 17.961304 33.956313 12.75 37.5 C8.564444 39.578092 4.899504 39.858458 0.25 39.9375 C-1.039062 39.977461 -2.328125 40.017422 -3.65625 40.058594 C-8.218859 39.349406 -9.405035 38.080136 -12.25 34.5 C-12.881104 31.134277 -12.881104 31.134277 -12.878906 27.335938 C-12.881318 26.66205 -12.88373 25.988162 -12.886215 25.293854 C-12.88524 23.876832 -12.871924 22.45977 -12.846924 21.042969 C-12.812479 18.873689 -12.826307 16.708458 -12.845703 14.539062 C-12.838808 13.158837 -12.829138 11.778622 -12.816406 10.398438 C-12.80553 9.147241 -12.794653 7.896045 -12.783447 6.606934 C-12.25 3.5 -12.25 3.5 -10.453857 1.598145 C-7.071828 -0.087063 -3.698811 -0.031187 0 0 Z M-2.25 7.5 C-3.524912 10.049824 -3.275966 11.664654 -3.128906 14.507812 C-3.080566 15.493945 -3.032227 16.480078 -2.982422 17.496094 C-2.926348 18.528633 -2.870273 19.561172 -2.8125 20.625 C-2.760293 21.665273 -2.708086 22.705547 -2.654297 23.777344 C-2.524391 26.351851 -2.389417 28.925993 -2.25 31.5 C-0.812868 31.550842 0.624784 31.587092 2.0625 31.617188 C2.863008 31.63894 3.663516 31.660693 4.488281 31.683105 C7.017 31.652859 7.017 31.652859 9.75 29.625 C12.50174 25.325407 13.041752 21.565142 12.75 16.5 C11.268295 12.351227 10.421132 10.947421 6.75 8.5 C4.470871 8.046054 4.470871 8.046054 2.0625 7.875 C1.254258 7.800234 0.446016 7.725469 -0.386719 7.648438 C-1.001602 7.599453 -1.616484 7.550469 -2.25 7.5 Z " fill="#E74414" transform="translate(261.25,26.5)"/>
<path d="M0 0 C1.395088 0.007734 1.395088 0.007734 2.818359 0.015625 C4.263721 0.046563 4.263721 0.046563 5.738281 0.078125 C6.713457 0.083281 7.688633 0.088438 8.693359 0.09375 C15.896609 0.173953 15.896609 0.173953 17.050781 1.328125 C17.175781 4.328125 17.175781 4.328125 17.050781 7.328125 C16.050781 8.328125 16.050781 8.328125 12.453125 8.425781 C10.964813 8.419107 9.476517 8.407147 7.988281 8.390625 C6.850361 8.383857 6.850361 8.383857 5.689453 8.376953 C3.809863 8.365132 1.930312 8.347196 0.050781 8.328125 C0.380781 10.638125 0.710781 12.948125 1.050781 15.328125 C7.980781 15.823125 7.980781 15.823125 15.050781 16.328125 C16.050781 20.328125 16.050781 20.328125 15.03125 22.066406 C12.124124 23.918481 9.771048 23.616846 6.363281 23.515625 C5.183789 23.488555 4.004297 23.461484 2.789062 23.433594 C1.88543 23.398789 0.981797 23.363984 0.050781 23.328125 C0.380781 25.638125 0.710781 27.948125 1.050781 30.328125 C6.330781 30.658125 11.610781 30.988125 17.050781 31.328125 C17.380781 32.648125 17.710781 33.968125 18.050781 35.328125 C17.390781 36.318125 16.730781 37.308125 16.050781 38.328125 C13.744141 38.716309 13.744141 38.716309 10.894531 38.726562 C9.872305 38.73043 8.850078 38.734297 7.796875 38.738281 C6.725664 38.72668 5.654453 38.715078 4.550781 38.703125 C2.943965 38.720527 2.943965 38.720527 1.304688 38.738281 C0.282461 38.734414 -0.739766 38.730547 -1.792969 38.726562 C-2.73334 38.723179 -3.673711 38.719795 -4.642578 38.716309 C-5.40377 38.588208 -6.164961 38.460107 -6.949219 38.328125 C-10.257927 33.365063 -9.321091 27.409036 -9.319824 21.594727 C-9.324204 19.335825 -9.360549 17.078869 -9.398438 14.820312 C-9.404305 13.385423 -9.408275 11.950525 -9.410156 10.515625 C-9.418374 9.209805 -9.426592 7.903984 -9.435059 6.558594 C-8.949219 3.328125 -8.949219 3.328125 -7.229736 1.399414 C-4.613465 0.170402 -2.883094 -0.031607 0 0 Z " fill="#E64618" transform="translate(297.94921875,26.671875)"/>
<path d="M0 0 C1.320645 0.000967 1.320645 0.000967 2.667969 0.001953 C3.579336 0.018066 4.490703 0.03418 5.429688 0.050781 C6.348789 0.047559 7.267891 0.044336 8.214844 0.041016 C15.037524 0.096118 15.037524 0.096118 17.304688 2.363281 C16.749132 6.918837 16.749132 6.918837 15.304688 8.363281 C12.774193 8.436417 10.271639 8.455757 7.742188 8.425781 C7.03127 8.42127 6.320352 8.416758 5.587891 8.412109 C3.826787 8.40029 2.065727 8.382354 0.304688 8.363281 C-0.025313 10.673281 -0.355312 12.983281 -0.695312 15.363281 C0.292109 15.35168 1.279531 15.340078 2.296875 15.328125 C3.578203 15.319102 4.859531 15.310078 6.179688 15.300781 C7.455859 15.28918 8.732031 15.277578 10.046875 15.265625 C13.304688 15.363281 13.304688 15.363281 15.304688 16.363281 C15.304688 18.343281 15.304688 20.323281 15.304688 22.363281 C12.420529 23.805361 9.887472 23.45723 6.679688 23.425781 C5.491172 23.416758 4.302656 23.407734 3.078125 23.398438 C2.162891 23.386836 1.247656 23.375234 0.304688 23.363281 C0.304688 26.003281 0.304688 28.643281 0.304688 31.363281 C1.448086 31.35168 2.591484 31.340078 3.769531 31.328125 C5.260415 31.318748 6.751301 31.309648 8.242188 31.300781 C8.996934 31.292402 9.75168 31.284023 10.529297 31.275391 C12.454631 31.266757 14.380043 31.311038 16.304688 31.363281 C17.304688 32.363281 17.304688 32.363281 17.429688 34.863281 C17.304688 37.363281 17.304688 37.363281 16.304688 38.363281 C12.521925 38.698377 8.725386 38.688218 4.929688 38.738281 C3.328672 38.794355 3.328672 38.794355 1.695312 38.851562 C-6.086557 38.93977 -6.086557 38.93977 -8.90625 36.269531 C-10.334665 31.008437 -9.978612 25.861068 -9.773438 20.452148 C-9.721075 19.052117 -9.67952 17.651642 -9.648438 16.250977 C-9.602709 14.203662 -9.528744 12.159373 -9.445312 10.113281 C-9.398906 8.89125 -9.3525 7.669219 -9.304688 6.410156 C-8.695312 3.363281 -8.695312 3.363281 -6.950684 1.695557 C-4.382001 0.178204 -2.958532 -0.010966 0 0 Z " fill="#E64516" transform="translate(213.6953125,26.63671875)"/>
<path d="M0 0 C1.22332 -0.037383 2.446641 -0.074766 3.707031 -0.113281 C7.72558 0.378326 9.315868 1.539324 12.1875 4.3125 C11.8125 6.75 11.8125 6.75 11.1875 9.3125 C8.256423 10.778038 6.245564 9.550359 3.230469 8.726562 C0.658 8.205183 -1.322728 8.534446 -3.8125 9.3125 C-4.1425 10.6325 -4.4725 11.9525 -4.8125 13.3125 C-4.160234 13.482656 -3.507969 13.652812 -2.835938 13.828125 C3.739108 15.651294 9.146656 17.284151 13.125 23.1875 C14.373978 26.860966 14.363062 28.629071 13.1875 32.3125 C10.655142 36.29192 8.628465 37.883005 4.1875 39.3125 C-2.081753 39.962207 -8.641124 40.36574 -13.8125 36.3125 C-14.875 33.8125 -14.875 33.8125 -14.8125 31.3125 C-13.308594 29.65625 -13.308594 29.65625 -11.8125 28.3125 C-11.232422 28.540664 -10.652344 28.768828 -10.054688 29.003906 C-5.237942 30.776405 -1.927755 31.755264 3.1875 30.3125 C3.1875 28.6625 3.1875 27.0125 3.1875 25.3125 C2.139492 24.937383 1.091484 24.562266 0.011719 24.175781 C-1.367519 23.65974 -2.746408 23.142763 -4.125 22.625 C-4.815293 22.380723 -5.505586 22.136445 -6.216797 21.884766 C-9.586078 20.598905 -11.468615 19.73303 -13.792969 16.890625 C-15.398184 12.83146 -15.103088 9.447019 -13.8125 5.3125 C-9.404665 0.791643 -6.171009 0.122774 0 0 Z " fill="#E74416" transform="translate(135.8125,26.6875)"/>
<path d="M0 0 C1.154355 -0.002578 2.308711 -0.005156 3.498047 -0.007812 C5.306924 0.003789 5.306924 0.003789 7.152344 0.015625 C8.362129 0.007891 9.571914 0.000156 10.818359 -0.007812 C11.971426 -0.005234 13.124492 -0.002656 14.3125 0 C15.37219 0.002256 16.43188 0.004512 17.523682 0.006836 C20.089844 0.265625 20.089844 0.265625 22.089844 2.265625 C22.277344 4.828125 22.277344 4.828125 22.089844 7.265625 C21.089844 8.265625 21.089844 8.265625 18.804688 8.363281 C17.429902 8.345879 17.429902 8.345879 16.027344 8.328125 C15.108242 8.319102 14.189141 8.310078 13.242188 8.300781 C12.531914 8.28918 11.821641 8.277578 11.089844 8.265625 C11.097699 9.620953 11.097699 9.620953 11.105713 11.003662 C11.122721 14.34514 11.135277 17.686572 11.144775 21.028076 C11.149815 22.476326 11.156646 23.92457 11.165283 25.372803 C11.177366 27.450371 11.183076 29.527872 11.1875 31.605469 C11.195355 33.482867 11.195355 33.482867 11.203369 35.398193 C11.089844 38.265625 11.089844 38.265625 10.089844 39.265625 C7.214844 39.640625 7.214844 39.640625 4.089844 39.265625 C1.122391 35.513993 0.761131 32.78641 1.015625 28.089844 C1.07041 26.93291 1.125195 25.775977 1.181641 24.583984 C1.254473 23.385801 1.327305 22.187617 1.402344 20.953125 C1.494189 19.126846 1.494189 19.126846 1.587891 17.263672 C1.740853 14.263261 1.908665 11.264442 2.089844 8.265625 C1.37957 8.277227 0.669297 8.288828 -0.0625 8.300781 C-0.981602 8.309805 -1.900703 8.318828 -2.847656 8.328125 C-3.76418 8.339727 -4.680703 8.351328 -5.625 8.363281 C-7.910156 8.265625 -7.910156 8.265625 -8.910156 7.265625 C-9.160156 4.828125 -9.160156 4.828125 -8.910156 2.265625 C-5.449195 -0.041683 -4.080745 0.008678 0 0 Z " fill="#E74616" transform="translate(177.91015625,26.734375)"/>
<path d="M0 0 C4.519343 2.259671 6.761442 4.522884 9 9 C9.825345 14.524609 9.701514 19.462066 7.375 24.5625 C3.702793 28.331344 0.737941 29.813792 -4.5 30.375 C-9.688798 29.819057 -12.766352 28.333674 -16.3125 24.5 C-19.448038 19.854759 -19.519827 15.430332 -19 10 C-17.443923 5.798593 -15.869505 3.297519 -12 1 C-7.929052 -0.356983 -4.256463 -0.523872 0 0 Z M-10.5 7.875 C-12.63249 12.317687 -12.188799 16.269918 -11 21 C-9.003143 23.421445 -9.003143 23.421445 -5.0625 23.375 C-2.299679 23.27973 -1.28552 23.205218 1 21.5625 C2.827551 16.879402 2.866163 12.088982 0.9375 7.4375 C-1.069417 5.719022 -1.069417 5.719022 -4.4375 5.4375 C-8.033575 5.720567 -8.033575 5.720567 -10.5 7.875 Z " fill="#E54618" transform="translate(306,70)"/>
<path d="M0 0 C1.856693 3.632661 2.004201 5.774754 1.4375 9.8125 C-0.5625 13.25 -0.5625 13.25 -2.5625 15.8125 C-1.294062 17.17375 -1.294062 17.17375 0 18.5625 C2.463533 21.482755 2.463533 21.482755 2.25 24.1875 C1.981875 24.72375 1.71375 25.26 1.4375 25.8125 C-0.871094 26.054688 -0.871094 26.054688 -3.5625 25.8125 C-5.222656 24.132812 -5.222656 24.132812 -6.625 21.9375 C-8.879252 18.453088 -9.595967 17.795766 -13.5625 15.8125 C-13.5625 19.1125 -13.5625 22.4125 -13.5625 25.8125 C-15.562047 25.855044 -17.562916 25.853308 -19.5625 25.8125 C-22.207906 23.167094 -20.748122 15.438458 -20.75 11.875 C-20.768369 10.046787 -20.768369 10.046787 -20.787109 8.181641 C-20.789043 7.019551 -20.790977 5.857461 -20.792969 4.660156 C-20.797078 3.587737 -20.801187 2.515317 -20.80542 1.4104 C-20.5625 -1.1875 -20.5625 -1.1875 -18.5625 -3.1875 C-11.923459 -4.813387 -5.312855 -4.535364 0 0 Z M-13.5625 2.8125 C-13.5625 5.1225 -13.5625 7.4325 -13.5625 9.8125 C-9.939233 11.020256 -8.921036 10.355611 -5.5625 8.8125 C-5.941542 5.52174 -5.941542 5.52174 -7.5625 2.8125 C-9.562084 2.771692 -11.562953 2.769956 -13.5625 2.8125 Z " fill="#E64617" transform="translate(244.5625,73.1875)"/>
<path d="M0 0 C7.919962 0.138233 7.919962 0.138233 11.125 2.4375 C14.061488 6.58313 13.965245 8.430783 13.25 13.4375 C11.6875 15.6875 11.6875 15.6875 10.25 17.4375 C10.420558 20.166436 11.146865 21.310564 12.875 23.4375 C14.25 25.4375 14.25 25.4375 13.9375 27.6875 C13.710625 28.265 13.48375 28.8425 13.25 29.4375 C10.980469 29.71875 10.980469 29.71875 8.25 29.4375 C6.300781 27.46875 6.300781 27.46875 4.5625 24.9375 C3.498504 23.408743 2.402533 21.900665 1.25 20.4375 C0.59 20.4375 -0.07 20.4375 -0.75 20.4375 C-1.08 23.4075 -1.41 26.3775 -1.75 29.4375 C-3.749547 29.480044 -5.750416 29.478308 -7.75 29.4375 C-10.395406 26.792094 -8.935622 19.063458 -8.9375 15.5 C-8.955869 13.671787 -8.955869 13.671787 -8.974609 11.806641 C-8.976543 10.644551 -8.978477 9.482461 -8.980469 8.285156 C-8.984578 7.212737 -8.988687 6.140317 -8.99292 5.0354 C-8.472419 -0.531085 -4.708252 0.084431 0 0 Z M-1.75 6.4375 C-1.75 8.7475 -1.75 11.0575 -1.75 13.4375 C1.873267 14.645256 2.891464 13.980611 6.25 12.4375 C6.25 10.7875 6.25 9.1375 6.25 7.4375 C3.541207 6.083103 1.240667 6.372485 -1.75 6.4375 Z " fill="#E54718" transform="translate(129.75,69.5625)"/>
<path d="M0 0 C3.5625 0.4375 3.5625 0.4375 5.085938 2.371094 C7.050553 6.451048 8.410489 10.617989 9.75 14.9375 C10.022637 15.779258 10.295273 16.621016 10.576172 17.488281 C11.853463 21.553844 12.960541 25.120967 12.5625 29.4375 C10.5825 29.4375 8.6025 29.4375 6.5625 29.4375 C5.9025 27.1275 5.2425 24.8175 4.5625 22.4375 C1.5925 22.7675 -1.3775 23.0975 -4.4375 23.4375 C-4.685 24.406875 -4.9325 25.37625 -5.1875 26.375 C-6.4375 29.4375 -6.4375 29.4375 -8.375 30.4375 C-10.4375 30.4375 -10.4375 30.4375 -13.4375 28.4375 C-12.311999 22.247246 -10.508008 16.427934 -8.4375 10.5 C-8.176304 9.742112 -7.915107 8.984224 -7.645996 8.203369 C-4.953118 0.630397 -4.953118 0.630397 0 0 Z M-0.4375 8.4375 C-1.9225 12.3975 -1.9225 12.3975 -3.4375 16.4375 C-2.371049 17.733836 -2.371049 17.733836 0.125 17.5 C0.929375 17.479375 1.73375 17.45875 2.5625 17.4375 C1.9025 14.4675 1.2425 11.4975 0.5625 8.4375 C0.2325 8.4375 -0.0975 8.4375 -0.4375 8.4375 Z " fill="#E64517" transform="translate(159.4375,69.5625)"/>
<path d="M0 0 C1.133086 0.006445 2.266172 0.012891 3.433594 0.019531 C5.998183 0.157206 8.123036 0.438279 10.5625 1.1875 C10.2325 2.8375 9.9025 4.4875 9.5625 6.1875 C4.1175 6.6825 4.1175 6.6825 -1.4375 7.1875 C-1.7675 8.5075 -2.0975 9.8275 -2.4375 11.1875 C-1.727227 11.175898 -1.016953 11.164297 -0.285156 11.152344 C0.633945 11.14332 1.553047 11.134297 2.5 11.125 C3.416523 11.113398 4.333047 11.101797 5.277344 11.089844 C7.5625 11.1875 7.5625 11.1875 8.5625 12.1875 C8.5625 13.8375 8.5625 15.4875 8.5625 17.1875 C3.6125 17.6825 3.6125 17.6825 -1.4375 18.1875 C-1.7675 19.8375 -2.0975 21.4875 -2.4375 23.1875 C1.5225 23.1875 5.4825 23.1875 9.5625 23.1875 C9.8925 24.8375 10.2225 26.4875 10.5625 28.1875 C8.461186 30.288814 4.021037 29.372647 1.125 29.375 C0.335449 29.387246 -0.454102 29.399492 -1.267578 29.412109 C-3.325574 29.417373 -5.38312 29.309563 -7.4375 29.1875 C-10.593359 26.031641 -9.732323 22.528585 -9.759766 18.222656 C-9.756543 17.056055 -9.75332 15.889453 -9.75 14.6875 C-9.766113 13.520898 -9.782227 12.354297 -9.798828 11.152344 C-9.799473 10.039883 -9.800117 8.927422 -9.800781 7.78125 C-9.803762 6.75709 -9.806743 5.73293 -9.809814 4.677734 C-9.686951 3.855957 -9.564087 3.03418 -9.4375 2.1875 C-5.864117 -0.194755 -4.23129 -0.052831 0 0 Z " fill="#E64516" transform="translate(260.4375,69.8125)"/>
<path d="M0 0 C1 1.6875 1 1.6875 0 5.6875 C-3.63 5.6875 -7.26 5.6875 -11 5.6875 C-11 6.3475 -11 7.0075 -11 7.6875 C-10.31293 8.013633 -9.625859 8.339766 -8.917969 8.675781 C-8.016914 9.112773 -7.115859 9.549766 -6.1875 10 C-5.29418 10.429258 -4.400859 10.858516 -3.480469 11.300781 C-1.167197 12.594028 0.375031 13.610275 2 15.6875 C2.633401 19.962958 2.496694 21.95047 0.0625 25.5625 C-3.93645 28.337282 -7.164841 29.008746 -12 28.6875 C-14.582837 27.93673 -16.605686 26.961071 -19 25.6875 C-19 24.0375 -19 22.3875 -19 20.6875 C-18.01 20.3575 -17.02 20.0275 -16 19.6875 C-15.401875 20.0175 -14.80375 20.3475 -14.1875 20.6875 C-11.188964 22.058259 -9.147063 21.402741 -6 20.6875 C-6 19.6975 -6 18.7075 -6 17.6875 C-6.68707 17.433555 -7.374141 17.179609 -8.082031 16.917969 C-8.983086 16.573789 -9.884141 16.229609 -10.8125 15.875 C-11.70582 15.538555 -12.599141 15.202109 -13.519531 14.855469 C-15.968761 13.70221 -17.361987 12.823808 -19 10.6875 C-19.5 7.3125 -19.5 7.3125 -19 3.6875 C-16.76248 0.74676 -15.104124 -0.905717 -11.625 -2.1875 C-7.438254 -2.386869 -3.581018 -2.350043 0 0 Z " fill="#E34619" transform="translate(194,71.3125)"/>
<path d="M0 0 C3.0625 0.1875 3.0625 0.1875 5.0625 2.1875 C5.249955 4.900606 5.318154 7.509791 5.292969 10.222656 C5.292281 11.41344 5.292281 11.41344 5.29158 12.628281 C5.288558 14.306971 5.280671 15.985659 5.268311 17.664307 C5.250049 20.243102 5.247801 22.821538 5.248047 25.400391 C5.243132 27.028649 5.237304 28.656905 5.230469 30.285156 C5.229356 31.061177 5.228243 31.837198 5.227097 32.636734 C5.17855 38.07145 5.17855 38.07145 4.0625 39.1875 C0.5625 38.875 0.5625 38.875 -2.9375 38.1875 C-4.492253 35.077995 -4.079495 31.78303 -4.070312 28.371094 C-4.071269 27.599434 -4.072226 26.827774 -4.073212 26.03273 C-4.073892 24.401132 -4.072045 22.769532 -4.067871 21.137939 C-4.062514 18.631612 -4.067823 16.125463 -4.074219 13.619141 C-4.073558 12.036458 -4.072277 10.453775 -4.070312 8.871094 C-4.072337 8.116947 -4.074361 7.3628 -4.076447 6.5858 C-4.047715 0.258365 -4.047715 0.258365 0 0 Z " fill="#E64417" transform="translate(158.9375,26.8125)"/>
<path d="M0 0 C0.894609 -0.001289 1.789219 -0.002578 2.710938 -0.003906 C3.651953 -0.000039 4.592969 0.003828 5.5625 0.007812 C6.974023 0.002012 6.974023 0.002012 8.414062 -0.003906 C9.755977 -0.001973 9.755977 -0.001973 11.125 0 C11.951289 0.001128 12.777578 0.002256 13.628906 0.003418 C15.5625 0.132812 15.5625 0.132812 16.5625 1.132812 C16.603138 2.798984 16.605221 4.466693 16.5625 6.132812 C14.2525 6.462812 11.9425 6.792812 9.5625 7.132812 C9.570355 8.079186 9.570355 8.079186 9.578369 9.044678 C9.599078 11.886546 9.612141 14.728398 9.625 17.570312 C9.633379 18.563535 9.641758 19.556758 9.650391 20.580078 C9.655225 21.996436 9.655225 21.996436 9.660156 23.441406 C9.668011 24.753229 9.668011 24.753229 9.676025 26.091553 C9.5625 28.132812 9.5625 28.132812 8.5625 29.132812 C6.562916 29.17362 4.562047 29.175356 2.5625 29.132812 C1.362201 26.732214 1.447903 25.239206 1.464844 22.5625 C1.468066 21.666602 1.471289 20.770703 1.474609 19.847656 C1.482988 18.910508 1.491367 17.973359 1.5 17.007812 C1.504512 16.06293 1.509023 15.118047 1.513672 14.144531 C1.525476 11.807229 1.541942 9.470052 1.5625 7.132812 C0.61375 7.174063 -0.335 7.215312 -1.3125 7.257812 C-4.4375 7.132812 -4.4375 7.132812 -6.4375 5.132812 C-5.712627 0.348653 -4.632898 0.006324 0 0 Z " fill="#E44618" transform="translate(203.4375,69.8671875)"/>
<path d="M0 0 C2.97 0.495 2.97 0.495 6 1 C6 10.24 6 19.48 6 29 C4.35 29 2.7 29 1 29 C0 28 0 28 -0.113525 25.316162 C-0.108289 24.148352 -0.103052 22.980542 -0.097656 21.777344 C-0.094434 20.517285 -0.091211 19.257227 -0.087891 17.958984 C-0.079534 16.618489 -0.071069 15.277994 -0.0625 13.9375 C-0.057487 12.593101 -0.052923 11.248699 -0.048828 9.904297 C-0.036995 6.602821 -0.02051 3.301432 0 0 Z " fill="#E74718" transform="translate(276,70)"/>
<path d="M0 0 C0.99 0.33 1.98 0.66 3 1 C5.284597 1.089894 7.571793 1.117572 9.858154 1.113525 C10.551096 1.113671 11.244037 1.113817 11.957977 1.113968 C14.246756 1.113272 16.535454 1.105493 18.824219 1.097656 C20.411768 1.095791 21.999318 1.094368 23.586868 1.093369 C27.764227 1.089551 31.941551 1.079728 36.118896 1.068665 C40.381994 1.058433 44.645097 1.053867 48.908203 1.048828 C57.272151 1.038105 65.636071 1.021038 74 1 C70.336698 3.442201 68.59889 3.242725 64.233643 3.227051 C63.208861 3.227489 63.208861 3.227489 62.163376 3.227936 C59.906965 3.226543 57.650885 3.210986 55.394531 3.195312 C53.829403 3.191582 52.264273 3.188735 50.699142 3.186737 C46.580918 3.179103 42.462834 3.159456 38.344666 3.137329 C34.141906 3.116866 29.939123 3.107734 25.736328 3.097656 C17.490821 3.07621 9.245428 3.042077 1 3 C0.67 2.01 0.34 1.02 0 0 Z " fill="#C6572E" transform="translate(19,110)"/>
<path d="M0 0 C3.96 0 7.92 0 12 0 C12.33 1.65 12.66 3.3 13 5 C12 6 12 6 8.183594 6.097656 C6.601533 6.090981 5.019488 6.079019 3.4375 6.0625 C2.631191 6.057988 1.824883 6.053477 0.994141 6.048828 C-1.003938 6.037005 -3.001978 6.019069 -5 6 C-5 5.67 -5 5.34 -5 5 C-3.928789 4.951016 -2.857578 4.902031 -1.753906 4.851562 C-0.356744 4.776547 1.04039 4.700999 2.4375 4.625 C3.144551 4.594063 3.851602 4.563125 4.580078 4.53125 C6.392392 4.427194 8.19818 4.220801 10 4 C10.33 3.34 10.66 2.68 11 2 C7.37 1.67 3.74 1.34 0 1 C0 0.67 0 0.34 0 0 Z " fill="#C2532C" transform="translate(258,93)"/>
</svg>
