<?xml version="1.0" encoding="UTF-8"?>
<!-- Generator: visioncortex VTracer 0.6.4 -->
<svg version="1.1" xmlns="http://www.w3.org/2000/svg" width="512" height="512">
<path d="M0 0 C3.142213 1.886298 6.253421 3.809329 9.131836 6.083496 C15.140762 10.480613 20.346971 10.276877 27.59375 9.894531 C40.519138 9.312023 40.519138 9.312023 45.46875 12.769531 C48.780156 16.590385 50.793347 20.419666 52.90332 25.010498 C56.011626 31.680908 58.557906 35.786098 65.46875 38.769531 C67.557256 39.758682 69.640328 40.759363 71.71875 41.769531 C72.713906 42.223281 73.709063 42.677031 74.734375 43.144531 C78.449825 45.35257 80.889034 47.773901 82.113281 51.988281 C82.5534 57.965706 82.246526 63.64011 81.527344 69.59375 C81.400204 76.484701 84.08974 81.245738 88.03125 86.582031 C92.636364 92.974419 94.483162 96.746451 93.46875 104.769531 C91.863565 108.920872 89.415532 112.446754 86.835938 116.050781 C81.359975 123.775328 81.30264 129.084233 82.09375 138.332031 C82.533182 144.232138 82.796033 147.832272 79.46875 152.769531 C74.393126 157.438218 69.097538 159.994345 62.808594 162.828125 C55.440036 167.111369 52.780107 173.950834 49.410156 181.429688 C47.26572 185.118808 45.405482 188.008167 41.46875 189.769531 C36.503138 190.358688 31.560799 189.884372 26.585938 189.574219 C18.911752 189.284262 13.974068 190.709346 7.46875 194.769531 C6.045625 195.643516 6.045625 195.643516 4.59375 196.535156 C3.8925 197.025 3.19125 197.514844 2.46875 198.019531 C-1.217789 200.573776 -3.367137 201.919331 -7.90625 201.957031 C-8.677109 201.971211 -9.447969 201.985391 -10.242188 202 C-12.760509 201.746449 -14.315638 200.945501 -16.53125 199.769531 C-16.531467 200.349742 -16.531685 200.929952 -16.531909 201.527745 C-16.545431 235.932293 -16.584943 270.336711 -16.658106 304.741185 C-16.666872 308.874168 -16.675422 313.007152 -16.683838 317.140137 C-16.686356 318.374317 -16.686356 318.374317 -16.688926 319.633429 C-16.71558 332.947725 -16.72469 346.261977 -16.727291 359.576296 C-16.730353 373.242774 -16.752326 386.909128 -16.791775 400.575551 C-16.815514 409.005343 -16.824584 417.434887 -16.814763 425.864708 C-16.809438 431.649027 -16.822519 437.433124 -16.849913 443.21738 C-16.865169 446.552485 -16.86973 449.886681 -16.857847 453.221863 C-16.846218 456.844729 -16.865358 460.466201 -16.892014 464.088959 C-16.88134 465.133732 -16.870667 466.178505 -16.85967 467.254938 C-16.956106 474.296948 -18.405209 479.958997 -22.53125 485.769531 C-27.887553 490.196891 -32.698024 491.893201 -39.640857 491.900959 C-40.927269 491.9048 -42.213682 491.908641 -43.539077 491.912599 C-44.975 491.911819 -46.410924 491.91094 -47.846848 491.909973 C-49.365787 491.912556 -50.884726 491.915569 -52.403664 491.918977 C-56.588626 491.927059 -60.77357 491.928837 -64.958538 491.929574 C-69.467887 491.931422 -73.977228 491.938969 -78.486572 491.945709 C-88.352318 491.959303 -98.21806 491.965319 -108.083814 491.96972 C-114.242388 491.972481 -120.400961 491.976718 -126.559534 491.981224 C-143.605696 491.993418 -160.651857 492.003717 -177.698024 492.007099 C-178.789454 492.007319 -179.880885 492.007538 -181.00539 492.007765 C-182.646491 492.008092 -182.646491 492.008092 -184.320747 492.008426 C-186.537806 492.008869 -188.754865 492.009316 -190.971924 492.009766 C-192.621537 492.010098 -192.621537 492.010098 -194.304475 492.010437 C-212.123879 492.014385 -229.943242 492.031838 -247.76263 492.055125 C-266.050886 492.078833 -284.339121 492.091301 -302.627393 492.092467 C-312.898221 492.093384 -323.168996 492.099146 -333.43981 492.117287 C-342.186037 492.13268 -350.932194 492.137813 -359.678432 492.129549 C-364.141158 492.125639 -368.603744 492.126586 -373.066454 492.140606 C-377.153186 492.153327 -381.239671 492.152163 -385.326402 492.140015 C-386.803567 492.138055 -388.28075 492.141151 -389.75789 492.14986 C-406.449671 492.242024 -406.449671 492.242024 -412.808594 486.832031 C-413.356445 486.151406 -413.904297 485.470781 -414.46875 484.769531 C-415.034648 484.088906 -415.600547 483.408281 -416.183594 482.707031 C-418.53432 479.327436 -418.659058 476.472708 -418.671058 472.477614 C-418.676749 471.373572 -418.68244 470.269529 -418.688304 469.132031 C-418.689484 467.91416 -418.690664 466.696289 -418.691879 465.441513 C-418.696967 464.151519 -418.702055 462.861526 -418.707297 461.532441 C-418.721213 457.94423 -418.728789 454.356029 -418.73527 450.767797 C-418.741639 447.69185 -418.751709 444.61592 -418.761831 441.539983 C-418.795164 431.404606 -418.816679 421.269219 -418.83503 411.133805 C-418.839825 408.494502 -418.844809 405.855199 -418.849836 403.215896 C-418.880808 386.826024 -418.907494 370.436149 -418.924254 354.046256 C-418.928204 350.249343 -418.932207 346.45243 -418.936279 342.655518 C-418.937288 341.711812 -418.938296 340.768107 -418.939335 339.795805 C-418.956337 324.512569 -418.997441 309.229495 -419.048302 293.946338 C-419.100093 278.254843 -419.129199 262.563432 -419.136451 246.871852 C-419.141112 238.061866 -419.155846 229.252145 -419.196196 220.442244 C-419.230523 212.938143 -419.244424 205.434356 -419.231771 197.930182 C-419.225951 194.102939 -419.229766 190.276359 -419.259941 186.449217 C-419.29243 182.294503 -419.278133 178.141234 -419.259506 173.986435 C-419.276301 172.784179 -419.293096 171.581923 -419.3104 170.343235 C-419.218995 162.177738 -417.197643 157.37327 -412.53125 150.769531 C-411.617104 149.179083 -410.719936 147.578633 -409.847656 145.964844 C-409.40301 145.149028 -408.958364 144.333213 -408.500244 143.492676 C-407.80403 142.206594 -407.80403 142.206594 -407.09375 140.894531 C-406.586423 139.961089 -406.079097 139.027646 -405.556396 138.065918 C-401.694497 130.947815 -397.866692 123.811501 -394.045105 116.671692 C-393.093821 114.894663 -392.141954 113.117947 -391.189941 111.341309 C-390.556289 110.158543 -389.922662 108.975763 -389.289062 107.792969 C-388.976596 107.209698 -388.664129 106.626428 -388.342194 106.025482 C-386.186366 101.999033 -384.041503 97.966845 -381.898438 93.933594 C-380.755464 91.795436 -379.612247 89.657409 -378.46875 87.519531 C-377.957073 86.550317 -377.445396 85.581104 -376.918213 84.58252 C-369.12797 70.067891 -369.12797 70.067891 -364.53125 67.769531 C-363.061647 67.676427 -361.587865 67.645793 -360.115316 67.646483 C-359.181268 67.644492 -358.247219 67.642501 -357.284866 67.64045 C-356.251808 67.643363 -355.218751 67.646276 -354.154388 67.649277 C-352.516362 67.647995 -352.516362 67.647995 -350.845245 67.646688 C-347.161625 67.645032 -343.47805 67.650556 -339.794434 67.656006 C-337.16363 67.656288 -334.532827 67.65613 -331.902023 67.655563 C-326.225504 67.655038 -320.548995 67.658184 -314.872478 67.663801 C-306.665123 67.671918 -298.457773 67.674532 -290.250413 67.675789 C-276.935494 67.677979 -263.62058 67.684639 -250.305664 67.694092 C-237.369141 67.703267 -224.432619 67.710347 -211.496094 67.7146 C-210.30059 67.714994 -210.30059 67.714994 -209.080935 67.715396 C-205.082729 67.716701 -201.084524 67.717964 -197.086318 67.719208 C-163.901291 67.729579 -130.716271 67.747197 -97.53125 67.769531 C-97.692061 66.827871 -97.852871 65.886211 -98.018555 64.916016 C-99.105725 58.243894 -99.45218 52.583324 -95.53125 46.769531 C-92.175089 43.692018 -88.818349 41.885801 -84.706299 40.08252 C-76.548846 36.460547 -72.075775 33.23559 -68.53125 24.769531 C-63.335894 13.677605 -63.335894 13.677605 -58.53125 10.769531 C-55.422052 9.733132 -53.61012 9.742837 -50.375 9.917969 C-34.084471 10.787657 -34.084471 10.787657 -20.53125 2.769531 C-19.380066 1.955514 -18.215576 1.159527 -17.03125 0.394531 C-15.79375 -0.409844 -15.79375 -0.409844 -14.53125 -1.230469 C-9.461862 -2.920265 -4.809568 -2.337985 0 0 Z " fill="#F9BC48" transform="translate(418.53125,11.23046875)"/>
<path d="M0 0 C3.142213 1.886298 6.253421 3.809329 9.131836 6.083496 C15.140762 10.480613 20.346971 10.276877 27.59375 9.894531 C40.519138 9.312023 40.519138 9.312023 45.46875 12.769531 C48.780156 16.590385 50.793347 20.419666 52.90332 25.010498 C56.011626 31.680908 58.557906 35.786098 65.46875 38.769531 C67.557256 39.758682 69.640328 40.759363 71.71875 41.769531 C72.713906 42.223281 73.709062 42.677031 74.734375 43.144531 C78.449825 45.35257 80.889034 47.773901 82.113281 51.988281 C82.5534 57.965706 82.246526 63.64011 81.527344 69.59375 C81.400204 76.484701 84.08974 81.245738 88.03125 86.582031 C92.636364 92.974419 94.483162 96.746451 93.46875 104.769531 C91.863565 108.920872 89.415532 112.446754 86.835938 116.050781 C81.359975 123.775328 81.30264 129.084233 82.09375 138.332031 C82.533182 144.232138 82.796033 147.832272 79.46875 152.769531 C74.393126 157.438218 69.097538 159.994345 62.808594 162.828125 C55.440036 167.111369 52.780107 173.950834 49.410156 181.429688 C47.26572 185.118808 45.405482 188.008167 41.46875 189.769531 C36.503138 190.358688 31.560799 189.884372 26.585938 189.574219 C18.911752 189.284262 13.974068 190.709346 7.46875 194.769531 C6.52 195.352188 5.57125 195.934844 4.59375 196.535156 C3.8925 197.025 3.19125 197.514844 2.46875 198.019531 C-2.727454 201.619759 -6.172193 202.514569 -12.53125 201.769531 C-17.400651 199.548401 -21.371643 196.474113 -25.539062 193.136719 C-29.638269 190.323538 -33.127377 189.526562 -38.058594 189.714844 C-39.098223 189.739336 -40.137852 189.763828 -41.208984 189.789062 C-43.378526 189.859257 -45.547827 189.937357 -47.716797 190.023438 C-52.260319 190.119091 -55.705645 190.104491 -59.949219 188.382812 C-64.271934 184.00778 -66.564677 178.617603 -69.210938 173.123047 C-72.355036 166.967377 -75.293514 163.758928 -81.53125 160.769531 C-82.608906 160.233281 -83.686562 159.697031 -84.796875 159.144531 C-86.795055 158.223904 -88.795078 157.307268 -90.796875 156.394531 C-94.174192 154.38744 -95.665068 153.275287 -97.53125 149.769531 C-98.016227 144.552621 -97.619231 139.338725 -97.375 134.115234 C-97.177538 127.224651 -97.661895 122.539902 -101.53125 116.769531 C-102.465176 115.334805 -102.465176 115.334805 -103.417969 113.871094 C-104.012227 113.053828 -104.606484 112.236563 -105.21875 111.394531 C-109.15965 105.943094 -110.465064 102.550298 -109.53125 95.769531 C-107.220225 89.962084 -103.317103 84.822382 -99.765625 79.714844 C-97.59853 76.299611 -97.458951 73.791097 -97.757812 69.875 C-97.819687 68.91916 -97.881562 67.96332 -97.945312 66.978516 C-98.085163 64.975293 -98.233507 62.972645 -98.390625 60.970703 C-98.733058 55.428497 -98.91116 51.465449 -95.53125 46.769531 C-92.281316 43.583322 -88.810311 41.882276 -84.706299 40.08252 C-76.548846 36.460547 -72.075775 33.23559 -68.53125 24.769531 C-63.335894 13.677605 -63.335894 13.677605 -58.53125 10.769531 C-55.422052 9.733132 -53.61012 9.742837 -50.375 9.917969 C-34.084471 10.787657 -34.084471 10.787657 -20.53125 2.769531 C-19.380066 1.955514 -18.215576 1.159527 -17.03125 0.394531 C-15.79375 -0.409844 -15.79375 -0.409844 -14.53125 -1.230469 C-9.461862 -2.920265 -4.809568 -2.337985 0 0 Z " fill="#44A8F6" transform="translate(418.53125,11.23046875)"/>
<path d="M0 0 C29.7 0 59.4 0 90 0 C90 59.73 90 119.46 90 181 C86 181 86 181 82.9375 179.5 C77.56033 177.088351 71.394309 176.8806 65.796875 178.726562 C63.770463 179.707856 61.898954 180.79087 60 182 C59.285859 182.443437 58.571719 182.886875 57.835938 183.34375 C56.469219 184.19857 55.110118 185.065785 53.761719 185.949219 C49.405433 188.547536 44.910313 188.67989 40 188 C35.203643 186.199566 30.880099 183.674069 26.6875 180.75 C21.921689 177.646681 16.60096 177.350459 11 178 C9.065553 178.676672 9.065553 178.676672 7.25 179.5625 C4 181 4 181 0 180 C0 120.6 0 61.2 0 0 Z " fill="#DEDEDD" transform="translate(155,79)"/>
<path d="M0 0 C1.278868 -0.002062 1.278868 -0.002062 2.583572 -0.004166 C3.520806 -0.00057 4.45804 0.003025 5.423676 0.006729 C6.409078 0.006583 7.394481 0.006437 8.409744 0.006287 C11.677919 0.006985 14.946038 0.014775 18.214203 0.022598 C20.475789 0.024463 22.737376 0.025886 24.998962 0.026886 C30.960064 0.03071 36.921141 0.040539 42.882233 0.05159 C50.029953 0.063603 57.177681 0.068207 64.325409 0.074043 C75.192003 0.08375 86.058544 0.102908 96.92514 0.120255 C96.92514 26.520255 96.92514 52.920255 96.92514 80.120255 C86.793109 80.169239 76.661078 80.218223 66.222015 80.268692 C59.814455 80.304065 53.406903 80.339936 46.999359 80.378067 C36.82246 80.438536 26.645578 80.496935 16.468597 80.54213 C9.057393 80.575051 1.646263 80.614883 -5.764859 80.663045 C-9.689674 80.688308 -13.61444 80.71009 -17.539314 80.723598 C-21.232906 80.73642 -24.926327 80.758476 -28.619825 80.787638 C-30.622895 80.801042 -32.626023 80.804635 -34.629135 80.807953 C-35.82103 80.819116 -37.012924 80.83028 -38.240936 80.841782 C-39.795079 80.850078 -39.795079 80.850078 -41.380619 80.858541 C-44.126993 81.125319 -45.653554 81.898105 -48.07486 83.120255 C-49.06486 82.790255 -50.05486 82.460255 -51.07486 82.120255 C-44.40798 69.185729 -37.695403 56.285239 -30.680817 43.535294 C-27.889641 38.459595 -25.135416 33.36721 -22.422516 28.249161 C-21.803041 27.084412 -21.183566 25.919664 -20.545319 24.71962 C-19.348006 22.465491 -18.155797 20.208641 -16.969635 17.948624 C-7.4079 -0.009191 -7.4079 -0.009191 0 0 Z " fill="#F7A647" transform="translate(58.074859619140625,78.87974548339844)"/>
<path d="M0 0 C25.41 0 50.82 0 77 0 C77 9.795855 73.293597 15.828266 67.234375 23.308594 C64.760622 26.698261 64.489096 30.328916 64.515625 34.394531 C65.49068 39.639382 68.930109 43.750901 72 48 C79.83962 59.434712 76.813421 61.291318 76 80 C50.92 80 25.84 80 0 80 C0 53.6 0 27.2 0 0 Z " fill="#F7A748" transform="translate(245,79)"/>
<path d="M0 0 C1.26093 0.002122 1.26093 0.002122 2.547333 0.004288 C5.23732 0.009894 7.927225 0.022447 10.617188 0.035156 C12.438801 0.04017 14.260416 0.044734 16.082031 0.048828 C20.552115 0.059865 25.022137 0.077134 29.492188 0.097656 C27.714391 5.520076 25.806121 10.893286 23.894531 16.269531 C23.171752 18.305975 22.449016 20.342434 21.726318 22.378906 C21.162661 23.966387 21.162661 23.966387 20.587616 25.585938 C14.146098 43.730771 7.746926 61.88752 1.492188 80.097656 C0.874666 80.105743 0.257145 80.11383 -0.379089 80.122162 C-6.803067 80.208182 -13.226735 80.307685 -19.650391 80.415039 C-22.048124 80.453335 -24.445915 80.488187 -26.84375 80.519531 C-30.289272 80.565167 -33.734397 80.623165 -37.179688 80.683594 C-38.252731 80.695145 -39.325775 80.706696 -40.431335 80.718597 C-41.932439 80.748402 -41.932439 80.748402 -43.463867 80.778809 C-44.78291 80.798794 -44.78291 80.798794 -46.128601 80.819183 C-48.547146 80.962885 -48.547146 80.962885 -50.635559 82.180084 C-52.507813 83.097656 -52.507813 83.097656 -55.507812 82.097656 C-48.840933 69.163131 -42.128356 56.262641 -35.11377 43.512695 C-32.322594 38.436997 -29.568369 33.344612 -26.855469 28.226562 C-26.235994 27.061814 -25.616519 25.897065 -24.978271 24.697021 C-23.780959 22.442893 -22.588749 20.186042 -21.402588 17.926025 C-11.818214 -0.074307 -11.818214 -0.074307 0 0 Z " fill="#F38D1A" transform="translate(62.5078125,78.90234375)"/>
<path d="M0 0 C3.169614 1.281333 4.578202 2.520023 6.8125 5.0625 C8.611949 9.513768 8.908071 13.28428 8 18 C6.69075 19.968887 6.69075 19.968887 4.964111 21.812744 C4.009233 22.842881 4.009233 22.842881 3.035065 23.893829 C2.363493 24.588866 1.691922 25.283902 1 26 C0.363314 26.662568 -0.273372 27.325136 -0.929352 28.007782 C-2.952817 30.084004 -4.997814 32.136552 -7.050781 34.183594 C-7.790799 34.924568 -8.530816 35.665542 -9.293259 36.42897 C-10.842472 37.978859 -12.392927 39.527506 -13.94458 41.074951 C-16.326855 43.451822 -18.703685 45.834046 -21.080078 48.216797 C-22.590825 49.726884 -24.101881 51.236661 -25.613281 52.746094 C-26.324708 53.459545 -27.036134 54.172995 -27.769119 54.908066 C-28.75606 55.890279 -28.75606 55.890279 -29.762939 56.892334 C-30.341391 57.46999 -30.919843 58.047646 -31.515823 58.642807 C-34.105833 61.01122 -36.199045 61.26249 -39.625 61.4375 C-40.850898 61.528379 -40.850898 61.528379 -42.101562 61.621094 C-49.598001 60.014714 -55.515638 52.823622 -60.75 47.5625 C-61.39582 46.932793 -62.041641 46.303086 -62.707031 45.654297 C-67.494124 40.872119 -71.529418 36.352895 -72.5 29.4375 C-71.796136 24.598434 -69.798123 21.619861 -66.1875 18.367188 C-62.072934 15.795584 -57.650128 16.086697 -53 17 C-49.839744 18.918165 -47.477711 21.277433 -45 24 C-43.7625 25.206563 -43.7625 25.206563 -42.5 26.4375 C-42.005 26.953125 -41.51 27.46875 -41 28 C-36.917099 26.384486 -34.215662 23.453603 -31.210938 20.371094 C-30.66644 19.821394 -30.121942 19.271695 -29.560944 18.705338 C-27.827462 16.954088 -26.100834 15.196283 -24.375 13.4375 C-22.641158 11.676042 -20.905878 9.916064 -19.167633 8.158951 C-18.087526 7.066585 -17.010104 5.971557 -15.935638 4.873642 C-10.760296 -0.37104 -7.213501 -0.625777 0 0 Z " fill="#E4E5E5" transform="translate(440,84)"/>
<path d="M0 0 C1.12577 -0.012724 2.251539 -0.025449 3.411423 -0.038559 C4.642185 -0.032033 5.872948 -0.025507 7.141006 -0.018784 C8.440538 -0.027399 9.740069 -0.036015 11.078979 -0.044891 C14.641082 -0.067395 18.20274 -0.064444 21.764886 -0.05557 C24.739584 -0.05046 27.714198 -0.057753 30.688888 -0.065042 C37.707181 -0.082044 44.725257 -0.078472 51.743546 -0.061752 C58.981683 -0.044832 66.219217 -0.060664 73.457289 -0.092975 C79.674002 -0.119675 85.890527 -0.126946 92.107292 -0.11846 C95.819273 -0.113532 99.530891 -0.115741 103.242826 -0.136248 C107.382446 -0.158022 111.520923 -0.139202 115.660538 -0.11644 C116.889276 -0.128132 118.118015 -0.139824 119.383987 -0.151871 C128.626995 -0.048236 128.626995 -0.048236 131.757965 2.831451 C133.465469 5.514664 133.465469 5.514664 133.590469 9.077164 C132.182781 13.378432 131.411479 14.284441 127.465469 16.514664 C123.26747 17.123154 119.095665 17.070984 114.860001 17.048111 C112.939746 17.061034 112.939746 17.061034 110.980698 17.074219 C107.476502 17.096692 103.972758 17.093778 100.468517 17.084897 C97.54099 17.079782 94.613547 17.087084 91.686028 17.094369 C84.779426 17.111361 77.873044 17.107809 70.966446 17.09108 C63.844732 17.074152 56.72363 17.090003 49.601983 17.122303 C43.482913 17.149002 37.364033 17.156274 31.24491 17.147788 C27.592187 17.14286 23.939832 17.145063 20.287155 17.165575 C16.214694 17.18735 12.143394 17.16853 8.070938 17.145767 C6.862472 17.157459 5.654006 17.169152 4.40892 17.181198 C-3.728951 17.088453 -3.728951 17.088453 -7.787216 14.197876 C-10.086905 10.666427 -10.211398 8.651073 -9.534531 4.514664 C-6.626132 0.756722 -4.688669 0.013457 0 0 Z " fill="#FBD494" transform="translate(225.53453063964844,411.48533630371094)"/>
<path d="M0 0 C1.937295 -0.010514 1.937295 -0.010514 3.913727 -0.02124 C7.448864 -0.039448 10.983533 -0.032417 14.518678 -0.019724 C18.220386 -0.009585 21.922054 -0.018992 25.623764 -0.025269 C31.838605 -0.032541 38.053255 -0.022966 44.268066 -0.003906 C51.452213 0.017872 58.635906 0.010803 65.820041 -0.011212 C71.990894 -0.029365 78.161609 -0.031925 84.33248 -0.021457 C88.016967 -0.015223 91.70124 -0.014385 95.385714 -0.027603 C99.491791 -0.041305 103.597086 -0.022314 107.703125 0 C108.924537 -0.008097 110.145949 -0.016194 111.404373 -0.024536 C112.521729 -0.013257 113.639084 -0.001978 114.790298 0.009644 C115.760905 0.011152 116.731511 0.01266 117.73153 0.014214 C121.037419 0.665427 122.209148 1.916633 124.286865 4.517578 C125.286865 7.455078 125.286865 7.455078 125.286865 10.517578 C123.516471 13.264742 122.223947 15.049037 119.286865 16.517578 C117.549841 16.621343 115.808863 16.661431 114.068771 16.671478 C112.409484 16.684379 112.409484 16.684379 110.716675 16.69754 C109.497423 16.7018 108.278171 16.70606 107.021973 16.710449 C105.742241 16.718627 104.462509 16.726804 103.143997 16.735229 C98.893464 16.761453 94.642921 16.776757 90.392334 16.791016 C88.929482 16.796375 87.46663 16.801753 86.003778 16.807148 C79.919086 16.828777 73.834396 16.847514 67.749675 16.85877 C59.027387 16.875012 50.305545 16.908194 41.583425 16.965171 C35.451722 17.003862 29.320139 17.023402 23.188317 17.028691 C19.525425 17.032346 15.863007 17.044378 12.200247 17.076794 C8.113209 17.112446 4.027128 17.108506 -0.060059 17.101074 C-1.273238 17.11748 -2.486417 17.133885 -3.736359 17.150787 C-11.908958 17.089796 -11.908958 17.089796 -15.96489 14.203766 C-18.277807 10.649956 -18.46914 8.675609 -17.713135 4.517578 C-13.190176 -1.140996 -6.611052 -0.043898 0 0 Z " fill="#FBD494" transform="translate(233.713134765625,446.482421875)"/>
</svg>
