<?xml version="1.0" encoding="UTF-8"?>
<!-- Generator: visioncortex VTracer 0.6.4 -->
<svg version="1.1" xmlns="http://www.w3.org/2000/svg" width="512" height="512">
<path d="M0 0 C1.315267 -0.012609 2.630533 -0.025217 3.985657 -0.038208 C5.419805 -0.031045 6.853949 -0.022841 8.288086 -0.013672 C9.765363 -0.016368 11.242639 -0.020252 12.71991 -0.025269 C15.816863 -0.031164 18.913354 -0.022606 22.010254 -0.003906 C25.962384 0.018804 29.913423 0.005812 33.865513 -0.018196 C36.918091 -0.032722 39.970416 -0.028016 43.023003 -0.017685 C44.478921 -0.015032 45.934864 -0.018236 47.390755 -0.027603 C56.440407 -0.073028 63.361801 0.221888 70.59668 6.244141 C76.791253 13.533639 82.284636 21.334162 87.821289 29.126953 C90.517101 32.915328 93.237603 36.685755 95.959961 40.455078 C96.49323 41.194275 97.026499 41.933472 97.575928 42.695068 C101.524973 48.160567 105.516577 53.593648 109.522461 59.017578 C111.268843 61.38643 113.014574 63.755759 114.759766 66.125488 C115.951882 67.743267 117.145277 69.360104 118.339844 70.976074 C120.115217 73.38128 121.882211 75.792436 123.647461 78.205078 C124.179844 78.923086 124.712227 79.641094 125.260742 80.380859 C125.762187 81.069219 126.263633 81.757578 126.780273 82.466797 C127.214849 83.058074 127.649424 83.649351 128.097168 84.258545 C132.544012 91.306617 134.112209 96.554664 134.040039 104.9375 C134.047048 105.949943 134.054058 106.962386 134.061279 108.005508 C134.0788 111.332732 134.067257 114.659097 134.053711 117.986328 C134.056408 120.309857 134.060291 122.633384 134.065308 124.956909 C134.071195 129.818876 134.062665 134.680548 134.043945 139.54248 C134.021157 145.763267 134.034284 151.983363 134.058235 158.204124 C134.072714 162.999788 134.068077 167.795289 134.057724 172.590958 C134.055063 174.884202 134.058306 177.177461 134.067642 179.470688 C134.077842 182.680073 134.062258 185.888353 134.040039 189.097656 C134.048136 190.038153 134.056233 190.97865 134.064575 191.947647 C133.97371 199.060395 132.284505 204.365663 127.557617 209.759766 C126.906641 210.298594 126.255664 210.837422 125.584961 211.392578 C124.936563 211.946875 124.288164 212.501172 123.620117 213.072266 C118.764265 216.418011 114.491553 216.786426 108.709961 216.642578 C108.01709 216.633555 107.324219 216.624531 106.610352 216.615234 C104.914237 216.59184 103.218302 216.555975 101.522461 216.517578 C101.375508 217.328398 101.228555 218.139219 101.077148 218.974609 C98.413694 232.123501 92.944877 241.061809 83.522461 250.517578 C82.969453 251.093789 82.416445 251.67 81.84668 252.263672 C70.467826 263.134289 55.100615 265.191111 40.131836 264.892578 C28.356246 264.336751 18.630879 259.994401 9.522461 252.517578 C8.536328 251.746719 7.550195 250.975859 6.53418 250.181641 C-4.293449 241.094319 -9.433966 227.478057 -11.223633 213.837891 C-12.374879 198.783138 -8.319047 185.64531 0.522461 173.517578 C0.960742 172.883359 1.399023 172.249141 1.850586 171.595703 C9.39851 161.68337 22.347377 154.481642 34.522461 152.517578 C46.158247 151.354867 57.822725 151.361663 68.522461 156.517578 C69.437695 156.918477 70.35293 157.319375 71.295898 157.732422 C84.630435 164.17558 93.633628 175.618691 98.834961 189.267578 C100.108322 192.992555 101.097557 196.587221 101.522461 200.517578 C103.295518 200.261704 105.065907 199.987301 106.834961 199.705078 C107.821094 199.554258 108.807227 199.403437 109.823242 199.248047 C112.830567 198.434198 113.701305 197.996228 115.522461 195.517578 C116.029641 192.518717 116.029641 192.518717 116.03418 189.099609 C116.087354 187.219189 116.087354 187.219189 116.141602 185.300781 C116.16416 183.990449 116.186719 182.680117 116.209961 181.330078 C116.243138 179.994758 116.277628 178.65947 116.313477 177.324219 C116.396082 174.055423 116.465193 170.7869 116.522461 167.517578 C115.480898 167.415742 114.439336 167.313906 113.366211 167.208984 C105.134468 165.728275 98.216996 160.106933 93.022461 153.701172 C88.045487 146.456046 85.400997 139.785138 85.209961 131.017578 C85.172578 129.893516 85.135195 128.769453 85.09668 127.611328 C85.625155 123.771399 86.489566 122.863809 89.522461 120.517578 C92.455078 120.063477 92.455078 120.063477 95.819336 120.126953 C97.627246 120.146289 97.627246 120.146289 99.47168 120.166016 C100.725937 120.199531 101.980195 120.233047 103.272461 120.267578 C104.542188 120.285625 105.811914 120.303672 107.120117 120.322266 C110.254554 120.3694 113.388602 120.441143 116.522461 120.517578 C116.522461 115.237578 116.522461 109.957578 116.522461 104.517578 C114.494106 104.530902 114.494106 104.530902 112.424774 104.544495 C99.682508 104.625574 86.940294 104.685541 74.197828 104.724827 C67.64675 104.745703 61.09588 104.774022 54.544922 104.819336 C48.223115 104.862791 41.901508 104.886715 35.579563 104.897087 C33.167409 104.904479 30.755266 104.918914 28.343197 104.940498 C24.965048 104.969526 21.587727 104.973534 18.209473 104.97168 C17.211814 104.986061 16.214155 105.000442 15.186264 105.015259 C9.438314 104.981105 6.056218 104.411854 1.522461 100.517578 C-3.472637 95.151701 -3.060479 89.710948 -3.008789 82.767578 C-3.012616 81.636104 -3.016443 80.504629 -3.020386 79.338867 C-3.023102 76.951814 -3.015761 74.564731 -2.999023 72.177734 C-2.977612 68.529922 -2.998837 64.884079 -3.024414 61.236328 C-3.021771 58.913407 -3.016646 56.590487 -3.008789 54.267578 C-3.016886 53.179932 -3.024983 52.092285 -3.033325 50.97168 C-2.95983 45.018787 -2.717303 41.072054 1.522461 36.517578 C6.546429 32.074475 10.760201 31.927163 17.155273 31.986328 C18.069531 31.982501 18.983788 31.978674 19.925751 31.974731 C21.850414 31.972019 23.775115 31.979333 25.699707 31.996094 C28.645364 32.017563 31.588597 31.996244 34.53418 31.970703 C36.407883 31.973346 38.281585 31.978469 40.155273 31.986328 C41.034505 31.978231 41.913736 31.970134 42.819611 31.961792 C48.90404 32.055211 48.90404 32.055211 52.074707 34.425781 C53.640786 36.688542 54.06503 37.793178 54.022461 40.517578 C54.03793 41.507578 54.03793 41.507578 54.053711 42.517578 C53.250207 45.542534 52.008937 46.61581 49.522461 48.517578 C46.636197 48.866269 44.133695 48.985989 41.256836 48.908203 C40.553169 48.904175 39.849502 48.900146 39.124512 48.895996 C36.506895 48.875136 33.88965 48.81929 31.272461 48.767578 C22.486211 48.643828 22.486211 48.643828 13.522461 48.517578 C13.522461 61.717578 13.522461 74.917578 13.522461 88.517578 C44.542461 88.187578 75.562461 87.857578 107.522461 87.517578 C99.416588 76.160015 99.416588 76.160015 91.272461 64.830078 C90.734358 64.084436 90.196255 63.338794 89.641846 62.570557 C85.042112 56.209703 80.385437 49.891765 75.703369 43.591309 C72.78058 39.643231 69.917059 35.66866 67.147461 31.611328 C66.610002 30.828303 66.072544 30.045278 65.518799 29.238525 C64.507219 27.756723 63.505744 26.267952 62.516357 24.77124 C62.063333 24.108743 61.610308 23.446245 61.143555 22.763672 C60.756111 22.182869 60.368667 21.602065 59.969482 21.003662 C57.360378 18.324124 54.330323 17.58883 50.670273 17.266022 C49.627547 17.264763 48.584821 17.263504 47.510498 17.262207 C45.728563 17.251769 45.728563 17.251769 43.910629 17.241119 C42.636557 17.242116 41.362485 17.243113 40.049805 17.244141 C38.040509 17.229047 36.031213 17.213931 34.021928 17.197454 C29.076112 17.159702 24.130274 17.142516 19.184326 17.136719 C16.404326 17.132676 13.624747 17.11813 10.844864 17.092377 C8.228454 17.068899 5.61184 17.061585 2.995346 17.07193 C1.810542 17.058667 0.625737 17.045403 -0.594971 17.031738 C-1.636901 17.028888 -2.678831 17.026038 -3.752335 17.023102 C-7.163157 16.390396 -8.345327 15.196845 -10.477539 12.517578 C-11.008789 10.517578 -11.008789 10.517578 -10.977539 8.517578 C-10.987852 7.857578 -10.998164 7.197578 -11.008789 6.517578 C-9.486664 0.787226 -5.313093 0.014611 0 0 Z M103.522461 136.517578 C105.783985 142.312734 109.546091 145.946425 114.522461 149.517578 C115.182461 149.517578 115.842461 149.517578 116.522461 149.517578 C116.522461 145.227578 116.522461 140.937578 116.522461 136.517578 C112.232461 136.517578 107.942461 136.517578 103.522461 136.517578 Z M13.061523 185.365234 C6.338346 194.767444 5.537549 205.320399 6.522461 216.517578 C8.718682 227.287001 15.299036 235.651805 24.09668 242.009766 C34.07262 248.210592 45.294485 249.240661 56.674805 246.857422 C67.859552 243.233752 76.325011 235.328808 81.842773 225.060547 C85.893899 215.612641 86.122651 204.341973 82.959961 194.580078 C78.383377 183.906716 70.133323 175.656662 59.459961 171.080078 C41.626706 165.302404 24.835536 171.360074 13.061523 185.365234 Z " fill="#F2532E" transform="translate(362.4775390625,151.482421875)"/>
<path d="M0 0 C0.647794 -0.006717 1.295588 -0.013434 1.963013 -0.020355 C4.091876 -0.039264 6.220423 -0.043255 8.349365 -0.04541 C9.834794 -0.051841 11.320222 -0.058569 12.805649 -0.065582 C15.913268 -0.077535 19.020777 -0.081265 22.128418 -0.080078 C26.108854 -0.079874 30.088581 -0.107232 34.068849 -0.141623 C37.134082 -0.16386 40.199143 -0.167917 43.264448 -0.166859 C44.73207 -0.169217 46.199696 -0.178055 47.667238 -0.193523 C49.718771 -0.213132 51.768755 -0.207369 53.820312 -0.195312 C54.986597 -0.198163 56.152881 -0.201013 57.354507 -0.203949 C60.964769 0.392914 62.130983 1.436724 64.345459 4.290527 C64.876709 6.290527 64.876709 6.290527 64.845459 8.290527 C64.860928 9.280527 64.860928 9.280527 64.876709 10.290527 C64.098063 13.221899 62.677362 14.385479 60.345459 16.290527 C57.620255 16.796051 57.620255 16.796051 54.462891 16.804688 C53.278086 16.817951 52.093282 16.831214 50.872574 16.844879 C49.596478 16.839834 48.320381 16.834788 47.005615 16.82959 C44.997648 16.847608 42.989681 16.865635 40.981719 16.884237 C38.170648 16.905492 35.359664 16.908876 32.548523 16.91217 C27.633435 16.919878 22.718497 16.946848 17.803574 16.987152 C15.188204 17.006798 12.572733 17.016115 9.957291 17.014069 C8.769334 17.021028 7.581377 17.027986 6.357422 17.035156 C4.793333 17.037045 4.793333 17.037045 3.197647 17.038971 C0.188717 17.304352 -1.966194 17.927234 -4.654541 19.290527 C-7.134393 23.506276 -7.020215 27.215921 -7.654541 32.290527 C87.385459 32.290527 182.425459 32.290527 280.345459 32.290527 C279.536584 21.912442 279.536584 21.912442 275.345459 18.290527 C271.789569 17.105231 268.57414 17.150232 264.874405 17.159225 C264.106956 17.15711 263.339507 17.154994 262.548802 17.152814 C259.96937 17.146808 257.389986 17.147815 254.810547 17.148682 C252.9644 17.145651 251.118255 17.142129 249.27211 17.138153 C245.292638 17.13026 241.313175 17.125118 237.333696 17.121862 C231.044005 17.115958 224.75437 17.099425 218.464706 17.080521 C216.312688 17.074183 214.160669 17.067858 212.008651 17.061543 C210.392032 17.056795 210.392032 17.056795 208.742755 17.05195 C194.096742 17.009843 179.450756 16.976885 164.804688 16.9646 C154.929054 16.95623 145.053561 16.933783 135.177998 16.895244 C129.949781 16.875447 124.721774 16.863091 119.493517 16.868078 C114.577679 16.872711 109.662239 16.858997 104.746481 16.831066 C102.940495 16.824131 101.134468 16.824053 99.328484 16.831266 C96.866342 16.840109 94.40553 16.824537 91.943497 16.80278 C90.866796 16.815444 90.866796 16.815444 89.768344 16.828364 C86.356846 16.772463 84.628279 16.511418 81.903785 14.383512 C80.212765 12.112307 79.801784 11.085708 79.845459 8.290527 C79.82999 7.300527 79.82999 7.300527 79.814209 6.290527 C80.612409 3.28554 81.892788 2.194548 84.345459 0.290527 C87.089652 -0.102428 89.432893 -0.250406 92.175598 -0.217407 C93.366697 -0.226767 93.366697 -0.226767 94.581858 -0.236316 C97.245873 -0.252286 99.908977 -0.239626 102.572998 -0.227051 C104.481771 -0.23247 106.39054 -0.239592 108.299301 -0.248291 C113.487556 -0.266552 118.675494 -0.259444 123.863755 -0.246775 C129.293273 -0.236656 134.722764 -0.246038 140.152283 -0.252319 C149.275155 -0.259601 158.397899 -0.249996 167.520752 -0.230957 C178.061281 -0.209213 188.6015 -0.216219 199.142021 -0.238263 C208.19271 -0.256432 217.243305 -0.258967 226.294006 -0.248508 C231.698947 -0.242278 237.103743 -0.241423 242.508675 -0.254654 C247.594427 -0.266233 252.679781 -0.258149 257.76549 -0.235077 C259.629467 -0.2298 261.493479 -0.231287 263.357443 -0.240128 C265.907872 -0.251106 268.457036 -0.237292 271.007385 -0.217407 C271.740089 -0.22633 272.472793 -0.235253 273.2277 -0.244446 C279.634534 -0.147973 284.766353 2.03044 289.587646 6.255371 C290.126475 6.906348 290.665303 7.557324 291.220459 8.228027 C291.774756 8.876426 292.329053 9.524824 292.900146 10.192871 C297.326376 16.616885 296.712567 23.335968 296.720459 30.853027 C296.744951 32.084727 296.769443 33.316426 296.794678 34.585449 C296.798545 35.768164 296.802412 36.950879 296.806396 38.169434 C296.814614 39.247815 296.822832 40.326196 296.831299 41.437256 C296.217472 45.04218 295.167101 46.021286 292.345459 48.290527 C289.852715 48.791924 289.852715 48.791924 286.991821 48.793892 C285.899504 48.804323 284.807188 48.814754 283.68177 48.825501 C281.882376 48.812117 281.882376 48.812117 280.046631 48.798462 C278.134635 48.807822 278.134635 48.807822 276.184013 48.817371 C272.643339 48.834099 269.103096 48.825802 265.56242 48.813426 C261.745034 48.804392 257.927723 48.818337 254.110352 48.829346 C246.631115 48.847153 239.152039 48.843281 231.672796 48.831695 C225.59549 48.82267 219.518229 48.821433 213.440918 48.82579 C212.576702 48.826403 211.712486 48.827016 210.822082 48.827648 C209.066567 48.828927 207.311052 48.830224 205.555537 48.831538 C189.085387 48.84295 172.615326 48.82982 156.14519 48.808337 C142.006173 48.790465 127.867287 48.793569 113.728271 48.812012 C97.317964 48.833407 80.907734 48.841852 64.497414 48.829563 C62.748276 48.828288 60.999138 48.827031 59.25 48.82579 C58.38934 48.825173 57.528681 48.824556 56.641941 48.82392 C50.570357 48.820463 44.498822 48.826303 38.427246 48.835709 C31.030247 48.846915 23.633417 48.843917 16.236437 48.822586 C12.460722 48.812057 8.68529 48.807984 4.909576 48.821182 C0.820899 48.835258 -3.26706 48.818477 -7.355713 48.798462 C-8.555309 48.807385 -9.754905 48.816308 -10.990852 48.825501 C-12.083169 48.81507 -13.175486 48.804639 -14.300903 48.793892 C-15.244998 48.793242 -16.189093 48.792593 -17.161797 48.791924 C-20.419197 48.136723 -21.616774 46.863795 -23.654541 44.290527 C-24.172119 41.484863 -24.172119 41.484863 -24.185791 38.274902 C-24.190947 37.105723 -24.196104 35.936543 -24.201416 34.731934 C-24.178213 32.904687 -24.178213 32.904687 -24.154541 31.040527 C-24.17001 29.837832 -24.185479 28.635137 -24.201416 27.395996 C-24.164993 19.10057 -23.209881 13.347715 -17.689697 7.04834 C-17.038721 6.509512 -16.387744 5.970684 -15.717041 5.415527 C-15.068643 4.86123 -14.420244 4.306934 -13.752197 3.73584 C-9.266977 0.645464 -5.396396 0.03525 0 0 Z " fill="#F2542F" transform="translate(39.654541015625,95.70947265625)"/>
<path d="M0 0 C0.66 -0.010312 1.32 -0.020625 2 -0.03125 C4.957818 0.75442 6.09645 2.124119 8 4.5 C8.505524 7.528915 8.505524 7.528915 8.51416 11.116943 C8.524848 12.100637 8.524848 12.100637 8.535751 13.104202 C8.555009 15.266391 8.546757 17.427598 8.539062 19.589844 C8.548971 21.09674 8.560913 22.603624 8.574799 24.110489 C8.607162 28.075522 8.617552 32.04028 8.621643 36.005432 C8.630398 42.34809 8.665974 48.690521 8.713818 55.032991 C8.726378 57.244895 8.725647 59.45651 8.723541 61.668442 C8.730124 63.030184 8.737131 64.391924 8.744629 65.753662 C8.745888 66.938507 8.747147 68.123352 8.748444 69.344101 C9.000395 72.504951 9.546515 74.693532 11 77.5 C15.001191 79.853642 19.459353 80.038239 24 80.5 C24.051563 79.96375 24.103125 79.4275 24.15625 78.875 C25.03657 72.792789 27.095688 67.703748 29.8125 62.25 C30.143789 61.577109 30.475078 60.904219 30.816406 60.210938 C37.642769 46.925785 49.66803 38.518067 63.644531 33.894531 C69.031675 32.326229 74.097182 31.960751 79.6875 32 C81.12271 32.00858 81.12271 32.00858 82.586914 32.017334 C95.549708 32.340425 105.864199 36.262358 116 44.5 C116.832734 45.126484 117.665469 45.752969 118.523438 46.398438 C127.137432 53.708105 132.924591 64.703872 135.062988 75.687256 C135.239519 76.588346 135.41605 77.489436 135.597931 78.417831 C135.730614 79.104947 135.863297 79.792063 136 80.5 C136.943251 80.491118 137.886503 80.482235 138.858337 80.473083 C147.745575 80.392013 156.632737 80.332042 165.52026 80.292751 C170.08951 80.271872 174.658461 80.243549 179.227539 80.198242 C183.636609 80.154795 188.045391 80.130865 192.454659 80.120491 C194.137215 80.113098 195.819755 80.09866 197.50219 80.07708 C199.858251 80.04806 202.213125 80.044043 204.569336 80.045898 C205.265611 80.031517 205.961886 80.017136 206.67926 80.002319 C210.063775 80.031174 211.731004 80.289404 214.431213 82.403381 C216.132679 84.67732 216.543791 85.697398 216.5 88.5 C216.515469 89.49 216.515469 89.49 216.53125 90.5 C215.737039 93.489973 214.429247 94.598158 212 96.5 C209.378817 96.87455 207.184301 97.008112 204.569336 96.954102 C203.456553 96.954978 203.456553 96.954978 202.321289 96.955872 C199.875171 96.95309 197.43028 96.921998 194.984375 96.890625 C193.28616 96.883163 191.587936 96.87747 189.889709 96.873474 C185.42444 96.858217 180.959692 96.818934 176.494629 96.774658 C171.936595 96.733708 167.378477 96.715464 162.820312 96.695312 C153.879979 96.65244 144.940033 96.584187 136 96.5 C135.814231 97.508581 135.814231 97.508581 135.62471 98.537537 C135.455052 99.427171 135.285395 100.316805 135.110596 101.233398 C134.9455 102.112036 134.780404 102.990673 134.610306 103.895935 C133.691258 107.817347 132.050073 111.200238 130.1875 114.75 C129.856855 115.417734 129.526211 116.085469 129.185547 116.773438 C122.392034 130.073598 110.321917 138.485258 96.355469 143.105469 C90.968325 144.673771 85.902818 145.039249 80.3125 145 C79.355693 144.99428 78.398887 144.98856 77.413086 144.982666 C64.450292 144.659575 54.135801 140.737642 44 132.5 C43.167266 131.873516 42.334531 131.247031 41.476562 130.601562 C31.430085 122.076318 25.859865 109.29698 24 96.5 C23.01 96.546406 22.02 96.592812 21 96.640625 C6.637664 97.120825 6.637664 97.120825 1 92.5 C-4.078088 87.654574 -7.704418 83.2819 -8.267426 76.078354 C-8.275049 74.769155 -8.282673 73.459956 -8.290527 72.111084 C-8.297245 71.385261 -8.303962 70.659438 -8.310883 69.911621 C-8.329812 67.523042 -8.333784 65.134744 -8.335938 62.746094 C-8.342367 61.081303 -8.349095 59.416513 -8.35611 57.751724 C-8.368068 54.26748 -8.371792 50.783335 -8.370605 47.299072 C-8.370402 42.834394 -8.397756 38.37035 -8.43215 33.905822 C-8.454379 30.470007 -8.458444 27.034346 -8.457386 23.598467 C-8.459746 21.952218 -8.468592 20.305966 -8.484051 18.659788 C-8.50364 16.359245 -8.497903 14.060086 -8.48584 11.759521 C-8.48869 10.451118 -8.49154 9.142715 -8.494476 7.794662 C-7.746746 2.812584 -5.174676 -0.080854 0 0 Z M47.539062 65.347656 C40.815885 74.749866 40.015088 85.302821 41 96.5 C43.196221 107.269423 49.776575 115.634227 58.574219 121.992188 C68.550159 128.193013 79.772024 129.223083 91.152344 126.839844 C102.337091 123.216174 110.802551 115.31123 116.320312 105.042969 C120.371439 95.595063 120.60019 84.324395 117.4375 74.5625 C112.860916 63.889138 104.610862 55.639084 93.9375 51.0625 C76.104245 45.284826 59.313075 51.342496 47.539062 65.347656 Z " fill="#F2532E" transform="translate(24,271.5)"/>
<path d="M0 0 C2.345816 4.160401 2.290256 8.344857 2.274658 12.999756 C2.279769 13.790641 2.28488 14.581526 2.290146 15.396378 C2.30401 18.002611 2.303088 20.608578 2.300781 23.214844 C2.30467 25.031785 2.309005 26.848725 2.313766 28.665665 C2.321222 32.471069 2.320942 36.27638 2.315674 40.081787 C2.309879 44.951958 2.326814 49.821748 2.350019 54.691855 C2.364769 58.443428 2.365626 62.194909 2.362509 65.946505 C2.363021 67.741804 2.368246 69.537109 2.378321 71.33238 C2.390693 73.845453 2.383889 76.357788 2.372314 78.87085 C2.379958 79.608183 2.387602 80.345517 2.395477 81.105194 C2.347899 85.792178 1.492546 89.024905 -1 93 C-4.306877 94.653438 -7.451622 94.750755 -11 94 C-12.825684 92.769287 -12.825684 92.769287 -14.648438 91.089844 C-15.339858 90.454819 -16.031279 89.819795 -16.743652 89.165527 C-20.887667 85.188314 -24.958841 81.144008 -29 77.0625 C-29.870117 76.187871 -30.740234 75.313242 -31.636719 74.412109 C-33.760135 72.277026 -35.881164 70.139628 -38 68 C-41.890436 69.577959 -44.476954 72.235544 -47.351562 75.191406 C-47.851668 75.696714 -48.351774 76.202021 -48.867035 76.722641 C-50.457869 78.331231 -52.041831 79.946368 -53.625 81.5625 C-55.216178 83.181302 -56.808797 84.798618 -58.404388 86.413071 C-59.395471 87.416404 -60.383868 88.422399 -61.369293 89.43129 C-65.31273 93.432288 -67.267701 94.113618 -72.929688 94.425781 C-76.068561 93.780239 -77.064761 92.545146 -79 90 C-79.394558 87.052147 -79.547323 84.478227 -79.517578 81.53125 C-79.524587 80.678777 -79.531597 79.826304 -79.538818 78.947998 C-79.556416 76.131667 -79.54477 73.316341 -79.53125 70.5 C-79.533944 68.542316 -79.537826 66.584633 -79.542847 64.626953 C-79.548744 60.52461 -79.540171 56.422615 -79.521484 52.320312 C-79.498695 47.060794 -79.511817 41.802091 -79.535774 36.542603 C-79.550226 32.500263 -79.545629 28.458117 -79.535263 24.415771 C-79.532594 22.47648 -79.535872 20.537171 -79.545181 18.5979 C-79.555336 15.887709 -79.539861 13.178842 -79.517578 10.46875 C-79.525675 9.66655 -79.533772 8.864351 -79.542114 8.037842 C-79.487247 4.437374 -79.310769 2.406695 -77.092651 -0.496094 C-74.191669 -2.580915 -72.370318 -2.568899 -68.902344 -2.394531 C-65.968712 -1.786119 -64.706096 -0.388535 -63 2 C-61.958731 5.123808 -61.844477 7.385179 -61.794678 10.664795 C-61.774733 11.825772 -61.754787 12.986749 -61.734238 14.182907 C-61.717525 15.436102 -61.700813 16.689298 -61.683594 17.980469 C-61.662813 19.263595 -61.642032 20.54672 -61.620621 21.868729 C-61.565481 25.276628 -61.516036 28.684587 -61.467773 32.09259 C-61.417499 35.571546 -61.361844 39.050416 -61.306641 42.529297 C-61.199158 49.35279 -61.097691 56.17636 -61 63 C-60.525786 62.520549 -60.051572 62.041099 -59.562988 61.547119 C-57.419597 59.382982 -55.272356 57.222704 -53.125 55.0625 C-52.378633 54.307754 -51.632266 53.553008 -50.863281 52.775391 C-50.147852 52.056738 -49.432422 51.338086 -48.695312 50.597656 C-47.705554 49.600043 -47.705554 49.600043 -46.695801 48.582275 C-43.792147 45.873007 -41.164116 45.464667 -37.199219 45.542969 C-32.742786 46.469084 -30.103173 49.875417 -27 53 C-26.070989 53.929011 -25.141978 54.858022 -24.184814 55.815186 C-21.456543 58.543457 -18.728271 61.271729 -16 64 C-15.996354 63.232142 -15.992709 62.464283 -15.988953 61.673157 C-15.951073 54.433776 -15.894221 47.19491 -15.816097 39.95586 C-15.776602 36.234227 -15.744424 32.512832 -15.729004 28.791016 C-15.71385 25.198627 -15.67943 21.606891 -15.631691 18.014793 C-15.616863 16.644942 -15.608958 15.274998 -15.608116 13.905067 C-15.605749 11.985104 -15.576402 10.065231 -15.545898 8.145508 C-15.532575 6.506696 -15.532575 6.506696 -15.518982 4.834778 C-14.881133 1.350723 -13.720646 0.191133 -11 -2 C-6.955471 -4.091998 -3.722154 -2.067863 0 0 Z " fill="#F2BB15" transform="translate(215,162)"/>
<path d="M0 0 C0.66 -0.010312 1.32 -0.020625 2 -0.03125 C5.01382 0.769296 6.095464 2.033135 8 4.5 C8.392855 7.313156 8.540784 9.734883 8.507935 12.546875 C8.514175 13.364181 8.520414 14.181487 8.526844 15.02356 C8.542816 17.765999 8.530153 20.507554 8.517578 23.25 C8.522997 25.214524 8.530119 27.179043 8.538818 29.143555 C8.557078 34.48236 8.549973 39.820857 8.537302 45.159668 C8.527188 50.741871 8.536563 56.324046 8.542847 61.90625 C8.550128 71.281298 8.540523 80.656221 8.521484 90.03125 C8.499715 100.876323 8.506766 111.721096 8.52879 122.566162 C8.546931 131.870713 8.549509 141.175173 8.539035 150.479736 C8.532793 156.039926 8.531985 161.599975 8.545181 167.160156 C8.55672 172.387066 8.54875 177.613587 8.525604 182.840454 C8.520306 184.760939 8.521849 186.681457 8.530655 188.601929 C8.541552 191.219438 8.527918 193.835696 8.507935 196.453125 C8.516857 197.216935 8.52578 197.980745 8.534974 198.7677 C8.483613 202.225099 8.252954 204.158889 6.167473 206.971184 C3.070704 209.155474 0.767185 209.008049 -3 209.017578 C-4.044624 209.028092 -4.044624 209.028092 -5.110352 209.038818 C-7.407309 209.056392 -9.70303 209.044779 -12 209.03125 C-13.598961 209.033945 -15.19792 209.037828 -16.796875 209.042847 C-20.145992 209.048741 -23.494682 209.040182 -26.84375 209.021484 C-31.134786 208.998694 -35.424821 209.011818 -39.71582 209.035774 C-43.017004 209.050235 -46.31795 209.045625 -49.619141 209.035263 C-51.201173 209.032596 -52.783227 209.035863 -54.365234 209.045181 C-56.577402 209.055352 -58.787953 209.039842 -61 209.017578 C-62.258125 209.014396 -63.51625 209.011213 -64.8125 209.007935 C-68.555201 208.411528 -69.731599 207.474846 -72 204.5 C-72.53125 202.5 -72.53125 202.5 -72.5 200.5 C-72.515469 199.51 -72.515469 199.51 -72.53125 198.5 C-71.751607 195.564874 -70.33909 194.403116 -68 192.5 C-65.24115 192.018982 -65.24115 192.018982 -62.038086 192.045898 C-60.837143 192.046201 -59.6362 192.046503 -58.398865 192.046814 C-57.107083 192.067459 -55.815302 192.088104 -54.484375 192.109375 C-53.144886 192.116839 -51.805385 192.122531 -50.465881 192.126526 C-46.947486 192.141768 -43.429755 192.181036 -39.911621 192.225342 C-36.318776 192.266326 -32.725824 192.284544 -29.132812 192.304688 C-22.08827 192.347533 -15.044179 192.415766 -8 192.5 C-8.003687 191.534785 -8.007374 190.569571 -8.011173 189.575108 C-8.099907 166.107035 -8.165672 142.638985 -8.207249 119.17078 C-8.227888 107.821801 -8.256036 96.472932 -8.301758 85.124023 C-8.341583 75.234198 -8.367423 65.344453 -8.376354 55.45455 C-8.381576 50.216183 -8.393879 44.978047 -8.42292 39.739754 C-8.450021 34.811718 -8.458456 29.884006 -8.452431 24.955902 C-8.453533 23.14505 -8.461519 21.334187 -8.476822 19.523399 C-8.496666 17.054607 -8.49196 14.587045 -8.481018 12.118225 C-8.492669 11.398378 -8.504321 10.678531 -8.516325 9.936871 C-8.475245 6.517823 -8.225741 4.789476 -6.094936 2.057064 C-3.82269 0.368214 -2.794768 -0.043668 0 0 Z " fill="#F2542F" transform="translate(328,159.5)"/>
<path d="M0 0 C0.914258 -0.003827 1.828515 -0.007654 2.770477 -0.011597 C4.695141 -0.014309 6.619841 -0.006995 8.544434 0.009766 C11.490091 0.031235 14.433323 0.009916 17.378906 -0.015625 C19.25261 -0.012983 21.126311 -0.007859 23 0 C23.879231 -0.008097 24.758463 -0.016194 25.664337 -0.024536 C31.748766 0.068883 31.748766 0.068883 34.919434 2.439453 C36.485513 4.702213 36.909756 5.80685 36.867188 8.53125 C36.8775 9.19125 36.887812 9.85125 36.898438 10.53125 C36.094934 13.556205 34.853663 14.629482 32.367188 16.53125 C29.480924 16.879941 26.978421 16.999661 24.101562 16.921875 C23.397896 16.917847 22.694229 16.913818 21.969238 16.909668 C19.351621 16.888808 16.734377 16.832962 14.117188 16.78125 C5.330938 16.6575 5.330938 16.6575 -3.632812 16.53125 C-3.632812 29.73125 -3.632812 42.93125 -3.632812 56.53125 C-0.731052 56.473645 2.170708 56.41604 5.1604 56.356689 C14.755213 56.174302 24.350103 56.052873 33.946191 55.961316 C39.763808 55.903941 45.579647 55.826149 51.39624 55.701416 C57.011468 55.581757 62.624988 55.516097 68.241392 55.4876 C70.382226 55.467298 72.522968 55.427648 74.663073 55.368219 C91.373918 54.922696 91.373918 54.922696 96.274628 58.877533 C99.396069 63.50586 100.480551 66.999945 100.367188 72.53125 C86.128658 72.624769 71.890177 72.695 57.651403 72.738499 C51.039792 72.759376 44.428387 72.787696 37.816895 72.833008 C31.436733 72.876461 25.05677 72.900386 18.676472 72.910759 C16.241989 72.918151 13.807517 72.932586 11.373119 72.95417 C7.963839 72.983196 4.55538 72.987206 1.145996 72.985352 C0.138987 72.999733 -0.868023 73.014114 -1.905548 73.028931 C-7.675329 72.994956 -11.084798 72.446836 -15.632812 68.53125 C-20.627911 63.165373 -20.215752 57.72462 -20.164062 50.78125 C-20.167889 49.649775 -20.171716 48.518301 -20.175659 47.352539 C-20.178375 44.965486 -20.171034 42.578402 -20.154297 40.191406 C-20.132885 36.543594 -20.15411 32.897751 -20.179688 29.25 C-20.177044 26.927079 -20.171919 24.604159 -20.164062 22.28125 C-20.172159 21.193604 -20.180256 20.105957 -20.188599 18.985352 C-20.115103 13.032459 -19.872577 9.085726 -15.632812 4.53125 C-10.608845 0.088147 -6.395073 -0.059165 0 0 Z " fill="#F2BA16" transform="translate(379.6328125,183.46875)"/>
<path d="M0 0 C5.824858 3.519968 10.544666 8.989629 12.5625 15.5 C13.367641 23.336082 13.687104 31.119226 8.5625 37.5 C3.758014 42.545212 -0.599271 46.10563 -7.707031 46.835938 C-16.223266 46.929832 -22.113455 46.617729 -28.402344 40.628906 C-34.784167 33.725053 -35.917923 28.298321 -35.742188 18.945312 C-35.046898 11.083192 -31.38996 6.950413 -25.535156 1.945312 C-18.47078 -2.922135 -7.843963 -3.475952 0 0 Z M-16.8125 17.125 C-18.924565 20.211864 -19.049451 21.828291 -18.4375 25.5 C-16.9375 28 -16.9375 28 -14.4375 29.5 C-10.765791 30.111951 -9.149364 29.987065 -6.0625 27.875 C-3.950435 24.788136 -3.825549 23.171709 -4.4375 19.5 C-5.9375 17 -5.9375 17 -8.4375 15.5 C-12.109209 14.888049 -13.725636 15.012935 -16.8125 17.125 Z " fill="#F2BA15" transform="translate(419.4375,337.5)"/>
<path d="M0 0 C5.824858 3.519968 10.544666 8.989629 12.5625 15.5 C13.367641 23.336082 13.687104 31.119226 8.5625 37.5 C3.758014 42.545212 -0.599271 46.10563 -7.707031 46.835938 C-16.223266 46.929832 -22.113455 46.617729 -28.402344 40.628906 C-34.784167 33.725053 -35.917923 28.298321 -35.742188 18.945312 C-35.046898 11.083192 -31.38996 6.950413 -25.535156 1.945312 C-18.47078 -2.922135 -7.843963 -3.475952 0 0 Z M-16.8125 17.125 C-18.924565 20.211864 -19.049451 21.828291 -18.4375 25.5 C-16.9375 28 -16.9375 28 -14.4375 29.5 C-10.765791 30.111951 -9.149364 29.987065 -6.0625 27.875 C-3.950435 24.788136 -3.825549 23.171709 -4.4375 19.5 C-5.9375 17 -5.9375 17 -8.4375 15.5 C-12.109209 14.888049 -13.725636 15.012935 -16.8125 17.125 Z " fill="#F2BA15" transform="translate(115.4375,337.5)"/>
<path d="M0 0 C0.66 -0.010312 1.32 -0.020625 2 -0.03125 C5.031194 0.773911 6.093841 2.005463 8 4.5 C8.394558 7.447853 8.547323 10.021773 8.517578 12.96875 C8.524587 13.821223 8.531597 14.673696 8.538818 15.552002 C8.556416 18.368333 8.54477 21.183659 8.53125 24 C8.533944 25.957684 8.537826 27.915367 8.542847 29.873047 C8.548744 33.97539 8.540171 38.077385 8.521484 42.179688 C8.498695 47.439206 8.511817 52.697909 8.535774 57.957397 C8.550226 61.999737 8.545629 66.041883 8.535263 70.084229 C8.532594 72.02352 8.535872 73.962829 8.545181 75.9021 C8.555336 78.612291 8.539861 81.321158 8.517578 84.03125 C8.525675 84.83345 8.533772 85.635649 8.542114 86.462158 C8.487247 90.062626 8.310769 92.093305 6.092651 94.996094 C3.825228 96.625602 2.760352 97.043131 0 97 C-0.66 97.010312 -1.32 97.020625 -2 97.03125 C-5.031194 96.226089 -6.093841 94.994537 -8 92.5 C-8.394558 89.552147 -8.547323 86.978227 -8.517578 84.03125 C-8.524587 83.178777 -8.531597 82.326304 -8.538818 81.447998 C-8.556416 78.631667 -8.54477 75.816341 -8.53125 73 C-8.533944 71.042316 -8.537826 69.084633 -8.542847 67.126953 C-8.548744 63.02461 -8.540171 58.922615 -8.521484 54.820312 C-8.498695 49.560794 -8.511817 44.302091 -8.535774 39.042603 C-8.550226 35.000263 -8.545629 30.958117 -8.535263 26.915771 C-8.532594 24.97648 -8.535872 23.037171 -8.545181 21.0979 C-8.555336 18.387709 -8.539861 15.678842 -8.517578 12.96875 C-8.525675 12.16655 -8.533772 11.364351 -8.542114 10.537842 C-8.487247 6.937374 -8.310769 4.906695 -6.092651 2.003906 C-3.825228 0.374398 -2.760352 -0.043131 0 0 Z " fill="#F2542F" transform="translate(24,159.5)"/>
<path d="M0 0 C1.250391 0.012891 2.500781 0.025781 3.789062 0.039062 C5.741992 0.089336 5.741992 0.089336 7.734375 0.140625 C9.051797 0.158672 10.369219 0.176719 11.726562 0.195312 C14.979477 0.242456 18.232017 0.314199 21.484375 0.390625 C21.484375 5.670625 21.484375 10.950625 21.484375 16.390625 C15.049375 16.885625 15.049375 16.885625 8.484375 17.390625 C11.979941 23.171753 15.826306 26.618579 21.484375 30.390625 C21.705231 33.341266 21.764985 36.074307 21.671875 39.015625 C21.651572 40.21832 21.651572 40.21832 21.630859 41.445312 C21.595466 43.427369 21.541657 45.409081 21.484375 47.390625 C11.988304 46.588283 5.151786 42.590905 -1.390625 35.578125 C-7.40949 28.155823 -10.621055 20.394071 -10.828125 10.890625 C-10.865508 9.766563 -10.902891 8.6425 -10.941406 7.484375 C-10.038211 0.921707 -6.038343 -0.109788 0 0 Z " fill="#F2BA16" transform="translate(458.515625,271.609375)"/>
</svg>
