<?xml version="1.0" encoding="UTF-8"?>
<!-- Generator: visioncortex VTracer 0.6.4 -->
<svg version="1.1" xmlns="http://www.w3.org/2000/svg" width="512" height="512">
<path d="M0 0 C0.952482 -0.004458 1.904965 -0.008916 2.88631 -0.013509 C4.466822 -0.013232 4.466822 -0.013232 6.079264 -0.01295 C7.19296 -0.016627 8.306656 -0.020303 9.454101 -0.024091 C13.211291 -0.035164 16.968453 -0.038978 20.725657 -0.042781 C23.409084 -0.049043 26.092509 -0.055676 28.775934 -0.062694 C36.846375 -0.082467 44.916816 -0.092525 52.987275 -0.101421 C56.785258 -0.105802 60.583241 -0.11117 64.381224 -0.11641 C77.001776 -0.133422 89.622327 -0.147918 102.242889 -0.155159 C105.518883 -0.157069 108.794877 -0.158989 112.070871 -0.160945 C113.292258 -0.161671 113.292258 -0.161671 114.538319 -0.162411 C127.736946 -0.170716 140.935483 -0.196061 154.134072 -0.228526 C167.676225 -0.261564 181.218332 -0.279605 194.760525 -0.282803 C202.367494 -0.284971 209.97433 -0.293761 217.581259 -0.319264 C224.057853 -0.340928 230.534283 -0.349043 237.010909 -0.339298 C240.316801 -0.33474 243.622282 -0.338886 246.928143 -0.356059 C250.508998 -0.373625 254.088985 -0.366747 257.66984 -0.353526 C259.24366 -0.36998 259.24366 -0.36998 260.849274 -0.386766 C267.842731 -0.324105 267.842731 -0.324105 271.148453 1.975668 C273.041102 4.994984 272.98234 7.187215 272.955637 10.738713 C272.956221 11.392787 272.956805 12.04686 272.957407 12.720754 C272.954628 14.874748 272.923551 17.027345 272.89216 19.181096 C272.884697 20.677528 272.879005 22.17397 272.87501 23.670415 C272.85976 27.603064 272.820485 31.535119 272.776194 35.467534 C272.735226 39.48265 272.716995 43.497862 272.696848 47.513127 C272.653989 55.387097 272.585746 63.260585 272.501535 71.134221 C273.379926 71.127559 274.258316 71.120897 275.163324 71.114034 C283.446927 71.053888 291.730455 71.008229 300.014226 70.978785 C304.272867 70.963138 308.531328 70.941918 312.789865 70.907903 C316.900671 70.875274 321.011302 70.857361 325.122227 70.849589 C326.689504 70.844052 328.256772 70.833239 329.823975 70.817031 C332.021634 70.795209 334.218579 70.792256 336.41633 70.793645 C337.666535 70.786983 338.916739 70.780321 340.204828 70.773458 C344.571988 71.251362 347.253118 72.663304 350.089182 76.004827 C353.860617 81.949643 357.26789 88.039413 360.564035 94.259221 C364.889698 102.33408 369.283553 110.35995 373.814035 118.321721 C378.603485 126.765222 383.383621 135.21379 388.106607 143.694676 C388.820642 144.974117 389.537243 146.252128 390.256571 147.5286 C391.265746 149.320444 392.265479 151.11726 393.263254 152.915471 C393.840351 153.947366 394.417449 154.97926 395.012033 156.042424 C399.472654 165.301447 399.660633 174.960821 399.70466 185.02094 C399.71036 186.040976 399.716061 187.061012 399.721933 188.111959 C399.731332 190.255844 399.737897 192.399743 399.74177 194.543645 C399.751537 197.822136 399.782633 201.100016 399.814035 204.378362 C399.820561 206.467551 399.825813 208.556744 399.82966 210.64594 C399.848181 212.111687 399.848181 212.111687 399.867075 213.607045 C399.837131 222.734437 399.837131 222.734437 396.501535 226.134221 C393.866037 226.701848 393.866037 226.701848 390.739817 226.622502 C389.621555 226.606389 388.503293 226.590276 387.351145 226.573674 C386.183899 226.53178 385.016653 226.489885 383.814035 226.446721 C382.045764 226.412883 382.045764 226.412883 380.24177 226.378362 C377.32709 226.31936 374.414944 226.237084 371.501535 226.134221 C371.461252 226.782861 371.420969 227.431501 371.379465 228.099797 C370.684944 236.997728 367.86039 244.068239 362.126535 251.009221 C361.260285 251.710471 360.394035 252.411721 359.501535 253.134221 C358.916301 253.634377 358.331067 254.134534 357.728098 254.649846 C348.487365 262.173921 339.255684 263.197162 327.501535 262.134221 C317.869719 260.289045 310.717262 254.676022 304.837473 246.946721 C303.60838 245.049175 302.52276 243.149797 301.501535 241.134221 C301.089035 240.350471 300.676535 239.566721 300.251535 238.759221 C299.084363 234.674119 298.924284 230.361706 298.501535 226.134221 C246.361535 226.134221 194.221535 226.134221 140.501535 226.134221 C140.171535 229.434221 139.841535 232.734221 139.501535 236.134221 C136.013803 246.392259 129.864594 254.09555 120.251535 259.071721 C111.14183 263.350962 100.192705 263.737893 90.626535 260.571721 C81.640993 256.753199 74.936782 250.862558 70.501535 242.134221 C68.314851 236.650943 67.443847 232.034076 67.501535 226.134221 C66.623145 226.145324 65.744755 226.156427 64.839746 226.167867 C56.5562 226.268109 48.272858 226.344206 39.988845 226.393282 C35.730035 226.419361 31.471727 226.454727 27.213205 226.511418 C23.102368 226.565801 18.992013 226.595654 14.880844 226.608607 C13.313518 226.617836 11.746217 226.635859 10.179096 226.662871 C7.981067 226.699248 5.785023 226.704163 3.58674 226.701848 C2.336536 226.712951 1.086332 226.724054 -0.201757 226.735494 C-4.411439 225.967708 -5.861891 224.432961 -8.498465 221.134221 C-9.441838 218.3041 -9.620193 216.591222 -9.61199 213.662786 C-9.611877 212.311725 -9.611877 212.311725 -9.611761 210.93337 C-9.6066 209.964533 -9.601439 208.995697 -9.596121 207.997502 C-9.594706 207.002925 -9.593291 206.008348 -9.591833 204.983632 C-9.586232 201.804631 -9.57368 198.625701 -9.560965 195.446721 C-9.55595 193.292425 -9.551387 191.138128 -9.547293 188.98383 C-9.536262 183.700603 -9.519523 178.417417 -9.498465 173.134221 C-10.389383 173.143104 -11.280301 173.151986 -12.198217 173.161138 C-20.599525 173.241328 -29.000704 173.302208 -37.402307 173.34147 C-41.721553 173.362333 -46.040484 173.390628 -50.359549 173.435979 C-54.528722 173.479481 -58.697591 173.503367 -62.866974 173.51373 C-64.456601 173.521114 -66.046211 173.535532 -67.635708 173.557141 C-69.864657 173.586235 -72.092354 173.590175 -74.321463 173.588323 C-76.223416 173.601646 -76.223416 173.601646 -78.163794 173.615239 C-82.085691 173.049515 -83.735311 171.923207 -86.498465 169.134221 C-87.127371 166.915471 -87.127371 166.915471 -87.060965 164.634221 C-87.062254 163.881409 -87.063543 163.128596 -87.064871 162.352971 C-86.266445 159.225346 -85.034957 158.121627 -82.498465 156.134221 C-79.246084 155.653203 -79.246084 155.653203 -75.343191 155.68012 C-74.630596 155.679535 -73.918002 155.678951 -73.183813 155.678349 C-70.835071 155.68113 -68.487609 155.712218 -66.13909 155.743596 C-64.508136 155.751059 -62.877173 155.756752 -61.246206 155.760747 C-56.958478 155.776002 -52.671293 155.815283 -48.38378 155.859563 C-44.006718 155.900518 -39.629569 155.918759 -35.252371 155.938909 C-26.667458 155.981777 -18.083092 156.052126 -9.498465 156.134221 C-9.498465 149.534221 -9.498465 142.934221 -9.498465 136.134221 C-12.893855 136.186428 -12.893855 136.186428 -16.35784 136.23969 C-18.555418 136.263101 -20.752982 136.281308 -22.950613 136.299016 C-24.475416 136.314083 -26.000176 136.33454 -27.524832 136.360539 C-29.719276 136.397018 -31.913147 136.413968 -34.10784 136.42719 C-35.427517 136.4429 -36.747195 136.458611 -38.106863 136.474797 C-41.66934 136.117062 -43.065935 135.712926 -45.498465 133.134221 C-46.611192 129.128402 -46.934984 127.046943 -45.123465 123.259221 C-43.498465 121.134221 -43.498465 121.134221 -42.498465 120.134221 C-31.608465 120.134221 -20.718465 120.134221 -9.498465 120.134221 C-9.498465 97.034221 -9.498465 73.934221 -9.498465 50.134221 C-24.083282 50.331865 -24.083282 50.331865 -38.667166 50.584661 C-40.50024 50.599268 -42.333331 50.612008 -44.166433 50.622502 C-45.58551 50.660872 -45.58551 50.660872 -47.033255 50.700017 C-51.662376 50.703081 -53.797549 50.65579 -57.605154 47.822453 C-59.498465 45.134221 -59.498465 45.134221 -60.123465 41.634221 C-59.310629 37.082341 -58.201685 35.889883 -54.498465 33.134221 C-51.045932 32.4516 -47.674061 32.551503 -44.166433 32.64594 C-43.174686 32.653015 -42.182939 32.660089 -41.161139 32.667378 C-38.001971 32.695307 -34.844594 32.758044 -31.685965 32.821721 C-29.540808 32.846806 -27.395623 32.869619 -25.250418 32.89008 C-19.999159 32.945128 -14.74894 33.028738 -9.498465 33.134221 C-9.514175 32.342495 -9.529885 31.550769 -9.546072 30.735051 C-9.608532 27.139014 -9.647491 23.543091 -9.685965 19.946721 C-9.711101 18.700842 -9.736238 17.454963 -9.762136 16.17133 C-9.771804 14.96928 -9.781472 13.767229 -9.791433 12.528752 C-9.807144 11.423784 -9.822854 10.318816 -9.839041 9.180364 C-9.455011 5.745568 -8.546601 3.891316 -6.498465 1.134221 C-4.114998 -0.057512 -2.660591 0.005758 0 0 Z " fill="#FB6B53" transform="translate(104.49846458435059,127.86577892303467)"/>
<path d="M0 0 C6.525082 4.568551 10.758713 9.74941 14 17 C14.35707 17.785039 14.714141 18.570078 15.082031 19.378906 C18.149047 28.136216 17.6393 37.816801 14.03125 46.269531 C9.179153 55.891765 1.96486 62.051339 -8 66 C-16.558709 68.81086 -27.344886 67.787593 -35.503906 64.320312 C-44.902415 59.348957 -51.238743 52.376573 -54.9375 42.375 C-57.257317 33.523792 -56.493509 23.128079 -52.222656 14.984375 C-40.766732 -3.608627 -20.043353 -11.847721 0 0 Z " fill="#574953" transform="translate(228,323)"/>
<path d="M0 0 C9.126554 5.389387 16.042946 13.254396 19.09375 23.542969 C21.183444 34.383256 19.247316 43.458935 13.78125 52.980469 C7.647807 60.786669 0.467988 66.350048 -9.28125 68.605469 C-19.815612 69.594503 -29.289061 68.9814 -38.003906 62.617188 C-43.168207 58.213461 -47.211228 53.664722 -50.28125 47.605469 C-50.69375 46.821719 -51.10625 46.037969 -51.53125 45.230469 C-54.337137 35.409866 -53.813679 24.824263 -48.96875 15.730469 C-48.09988 14.338274 -47.205899 12.961259 -46.28125 11.605469 C-45.58 10.574219 -44.87875 9.542969 -44.15625 8.480469 C-32.99644 -4.202743 -14.958866 -7.177843 0 0 Z " fill="#574953" transform="translate(456.28125,321.39453125)"/>
<path d="M0 0 C1.247858 -0.007155 2.495716 -0.014311 3.781387 -0.021683 C5.177154 -0.024523 6.572922 -0.027235 7.968689 -0.029831 C9.428687 -0.036093 10.888684 -0.042739 12.348679 -0.049744 C16.326095 -0.067182 20.3035 -0.077713 24.280946 -0.085949 C26.764659 -0.091094 29.248368 -0.09717 31.732079 -0.10346 C39.499249 -0.122522 47.26641 -0.13675 55.033599 -0.145072 C64.006231 -0.154844 72.978616 -0.181159 81.951161 -0.221573 C88.88114 -0.251718 95.811049 -0.26654 102.741092 -0.269853 C106.882339 -0.272206 111.023321 -0.281194 115.164497 -0.306314 C119.061698 -0.329572 122.958462 -0.333838 126.855715 -0.323553 C128.285581 -0.323057 129.715469 -0.329399 131.145269 -0.343109 C133.098638 -0.360791 135.052196 -0.351349 137.005615 -0.340576 C138.644919 -0.344159 138.644919 -0.344159 140.317341 -0.347814 C143.958889 0.265403 145.640215 1.591196 148.256775 4.147171 C149.115949 7.092105 148.655337 9.008495 148.256775 12.147171 C146.445142 14.821486 145.379164 15.106375 142.256775 16.147171 C140.287121 16.24472 138.314299 16.282161 136.342239 16.287613 C135.107015 16.293323 133.871791 16.299033 132.599136 16.304916 C131.227936 16.306162 129.856735 16.307287 128.485535 16.308304 C127.043323 16.312932 125.601114 16.317957 124.158905 16.323349 C120.239518 16.336469 116.320148 16.342917 112.400743 16.34736 C109.952874 16.35029 107.505009 16.354395 105.057142 16.358864 C97.400503 16.372536 89.743874 16.382205 82.087223 16.386066 C73.244256 16.390549 64.401444 16.408112 55.558525 16.437066 C48.725334 16.458665 41.892187 16.468769 35.058962 16.470107 C30.976515 16.471156 26.894212 16.477087 22.8118 16.494926 C18.972902 16.511376 15.134258 16.513578 11.295338 16.504787 C9.886021 16.504015 8.47669 16.508381 7.067408 16.518246 C5.144411 16.530917 3.221313 16.523314 1.298294 16.514664 C0.221849 16.51613 -0.854596 16.517597 -1.96366 16.519108 C-5.138282 16.094308 -6.495782 15.403933 -8.743225 13.147171 C-9.855952 9.141352 -10.179744 7.059893 -8.368225 3.272171 C-5.605892 -0.340111 -4.611412 0.018057 0 0 Z " fill="#51454D" transform="translate(67.74322509765625,247.8528289794922)"/>
<path d="M0 0 C1.568907 -0.012923 1.568907 -0.012923 3.16951 -0.026108 C6.630266 -0.048828 10.090217 -0.042017 13.551025 -0.032959 C15.954719 -0.038192 18.358411 -0.044467 20.7621 -0.051743 C25.801785 -0.062158 30.841187 -0.057569 35.880859 -0.042969 C42.342042 -0.025784 48.802336 -0.049268 55.263419 -0.084458 C60.22797 -0.10641 65.192308 -0.104996 70.156893 -0.096693 C72.539149 -0.095872 74.921421 -0.10276 77.303633 -0.117464 C80.633969 -0.134867 83.962698 -0.120401 87.292969 -0.097656 C88.278588 -0.109348 89.264207 -0.121041 90.279694 -0.133087 C94.889662 -0.068971 97.036566 0.031859 100.827164 2.850235 C103.298308 6.369631 103.400741 8.319473 102.711182 12.533447 C100.516779 15.489248 99.312358 16.427104 95.653168 17.074387 C94.452054 17.093345 93.250939 17.112303 92.013428 17.131836 C91.013988 17.155448 91.013988 17.155448 89.994358 17.179537 C87.782674 17.226726 85.571717 17.245591 83.359619 17.263916 C81.791834 17.290603 80.224074 17.318805 78.656342 17.348434 C74.510295 17.421097 70.364359 17.468094 66.21788 17.507805 C63.766043 17.532886 61.314394 17.564591 58.862671 17.598938 C49.293838 17.732032 39.726203 17.80472 30.156494 17.828613 C26.889064 17.837681 23.622031 17.859103 20.354736 17.890137 C16.313765 17.92848 12.273153 17.947358 8.232006 17.951895 C6.71775 17.956735 5.203499 17.968276 3.68935 17.986933 C1.600643 18.011228 -0.486635 18.010387 -2.575439 18.003418 C-3.755606 18.009284 -4.935773 18.01515 -6.151703 18.021194 C-9.936361 17.43277 -11.598494 16.210544 -14.288818 13.533447 C-14.917725 11.314697 -14.917725 11.314697 -14.851318 9.033447 C-14.852607 8.280635 -14.853896 7.527822 -14.855225 6.752197 C-12.921114 -0.824179 -6.442915 -0.042572 0 0 Z " fill="#52454E" transform="translate(32.288818359375,283.466552734375)"/>
<path d="M0 0 C0.854528 0.004159 1.709055 0.008318 2.589478 0.012604 C5.443317 0.033048 8.29514 0.090064 11.148438 0.148438 C13.157367 0.173385 15.166321 0.196455 17.175293 0.217773 C21.554689 0.268784 25.933481 0.33643 30.3125 0.413086 C36.697251 0.519572 43.08153 0.566603 49.466949 0.601044 C54.19911 0.627036 58.931073 0.669409 63.663061 0.716974 C66.984484 0.750195 70.305701 0.776634 73.627258 0.792786 C77.366583 0.814057 81.104762 0.86083 84.84375 0.914062 C86.529783 0.915951 86.529783 0.915951 88.249878 0.917877 C89.283907 0.937566 90.317937 0.957254 91.383301 0.977539 C92.734052 0.990863 92.734052 0.990863 94.112091 1.004456 C97.301844 1.69097 98.516265 3.000403 100.523438 5.523438 C101.193182 9.458185 100.874543 10.99678 98.648438 14.335938 C95.632181 17.440908 95.632181 17.440908 92.682719 17.660452 C91.55589 17.66881 91.55589 17.66881 90.406296 17.677338 C89.544114 17.685938 88.681933 17.694539 87.793625 17.7034 C86.371504 17.70979 86.371504 17.70979 84.920654 17.716309 C83.425337 17.728575 83.425337 17.728575 81.899811 17.741089 C78.590765 17.765964 75.281763 17.782464 71.972656 17.796875 C70.280238 17.804861 70.280238 17.804861 68.553629 17.813007 C62.582716 17.839747 56.611824 17.85912 50.640869 17.873535 C44.46669 17.890192 38.293044 17.934978 32.119067 17.985907 C27.377603 18.019524 22.636266 18.031107 17.894693 18.036762 C15.618467 18.043489 13.342249 18.058747 11.066137 18.082653 C7.881781 18.114192 4.698875 18.114358 1.514404 18.106934 C0.572397 18.123339 -0.369611 18.139744 -1.340164 18.156647 C-5.858394 18.113478 -7.852208 17.99245 -11.561935 15.205719 C-13.476562 12.523438 -13.476562 12.523438 -14.101562 9.023438 C-12.669899 1.006121 -7.26898 -0.207208 0 0 Z " fill="#53454E" transform="translate(58.4765625,160.4765625)"/>
<path d="M0 0 C1.184729 -0.012684 2.369458 -0.025368 3.590088 -0.038437 C4.861023 -0.035501 6.131958 -0.032566 7.441406 -0.029541 C8.754236 -0.034783 10.067065 -0.040025 11.419678 -0.045425 C14.19362 -0.054342 16.967274 -0.05195 19.741211 -0.041992 C23.288924 -0.030495 26.835642 -0.05073 30.383224 -0.079909 C33.777671 -0.102706 37.171885 -0.095804 40.566406 -0.092041 C41.837341 -0.103275 43.108276 -0.114509 44.417725 -0.126083 C45.602454 -0.116702 46.787183 -0.107321 48.007812 -0.097656 C49.567377 -0.097407 49.567377 -0.097407 51.158447 -0.097153 C54.764725 0.538065 56.431748 1.836899 59.003906 4.404053 C60.16988 8.412089 60.436311 10.45688 58.691406 14.279053 C57.003906 16.404053 57.003906 16.404053 55.003906 17.404053 C53.0185 17.510802 51.029496 17.552908 49.04126 17.565186 C47.789787 17.574793 46.538313 17.584401 45.248917 17.594299 C43.876884 17.599147 42.504849 17.603426 41.132812 17.607178 C39.730382 17.612929 38.327952 17.618687 36.925522 17.624451 C33.984117 17.634959 31.042739 17.640803 28.101318 17.644287 C24.33046 17.649776 20.559962 17.673812 16.789216 17.702259 C13.892176 17.720872 10.995222 17.72609 8.098127 17.727623 C6.707835 17.730652 5.317543 17.738691 3.927309 17.751808 C1.983594 17.768841 0.039731 17.765148 -1.904053 17.760498 C-3.010547 17.764144 -4.117041 17.767789 -5.257065 17.771545 C-7.996094 17.404053 -7.996094 17.404053 -9.847549 16.043884 C-11.513145 13.665835 -11.465169 11.780099 -11.496094 8.904053 C-11.527031 7.94499 -11.557969 6.985928 -11.589844 5.997803 C-10.996094 3.404053 -10.996094 3.404053 -8.83374 1.767197 C-5.626613 0.226562 -3.542883 0.018411 0 0 Z " fill="#51454E" transform="translate(10.99609375,204.595947265625)"/>
</svg>
